<svg xmlns="http://www.w3.org/2000/svg" width="17.507" height="17.553" viewBox="0 0 17.507 17.553">
  <path id="Group_2143" data-name="Group 2143" d="M-2367.335-193.406a1.677,1.677,0,0,1,.405-.849l2.448-3.328a2.169,2.169,0,0,1,.91-.829c.794-.305,1.8.417,2.466.728l3,1.392a.809.809,0,0,1,.368.264.547.547,0,0,1-.037.524,2.337,2.337,0,0,1-1.828,1.128,4.249,4.249,0,0,1-2.239-.419l-.728,1.332a4.372,4.372,0,0,1,3.478-.032,9.239,9.239,0,0,1,2.852,1.934,22.93,22.93,0,0,0,2.586,2.235l3.075-2.756c.165,1.543-.71,3.006-1.545,4.366a7.494,7.494,0,0,0-1.494,4.061.33.33,0,0,1-.339.32h-.012l-8.005,0a.332.332,0,0,1-.353-.31.261.261,0,0,1,0-.034,6.142,6.142,0,0,0,.25-2.371,3.425,3.425,0,0,0-.707-1.13q-2.139-2.608-4.143-5.3a1.589,1.589,0,0,1-.411-.891C-2367.336-193.381-2367.336-193.393-2367.335-193.406Zm13.73,3.282a.269.269,0,0,1-.11.032.421.421,0,0,1-.253-.1,4.163,4.163,0,0,1-1.055-1.1.44.44,0,0,1-.094-.254.459.459,0,0,1,.146-.261L-2352.1-195c.969-1.075,1.926.057,2.237,1.112a.584.584,0,0,1,.023.334.646.646,0,0,1-.208.266l-3.407,3.05A.744.744,0,0,1-2353.6-190.123Zm-6.2-7.429-.01,0a.3.3,0,0,1-.234-.041l-2.627-1.258.662-1.292a1.122,1.122,0,0,1,.3-.416,1.053,1.053,0,0,1,.433-.154c.477-.089,3.154-.488,3.152.336a.844.844,0,0,1-.163.423l-1.395,2.268A.319.319,0,0,1-2359.807-197.552Zm5.693,4.429-1.11,1.227a.617.617,0,0,1-.288.213.591.591,0,0,1-.448-.143,6.658,6.658,0,0,1-1.447-1.339.481.481,0,0,1-.134-.282.5.5,0,0,1,.125-.279l2.785-3.8a2.189,2.189,0,0,1,.548-.582c.982-.63,2.04.916,2.332,1.675a.86.86,0,0,1,.071.5.974.974,0,0,1-.256.4Zm-3.291-.988-.011.016a2.408,2.408,0,0,0-.02-2.022c-.369-.535-1.083-.67-1.661-.966a.257.257,0,0,1-.148-.142.269.269,0,0,1,.052-.191l1.3-2.251a2.153,2.153,0,0,1,.559-.712c.913-.651,2.3.912,2.792,1.549a.516.516,0,0,1,.139.313.535.535,0,0,1-.122.278Z" transform="translate(2367.336 200.884)" fill="#171619"/>
</svg>
