<svg xmlns="http://www.w3.org/2000/svg" width="16.604" height="17.678" viewBox="0 0 16.604 17.678">
  <path id="Path_13780" data-name="Path 13780" d="M1082.5,701.819a28.672,28.672,0,0,0-.857-3.921,3.386,3.386,0,0,0-.31-.658c-.151-.27-.322-.529-.492-.788a.717.717,0,0,0-.142-.12c-.025-.021-.065-.049-.063-.069.017-.128-.079-.146-.162-.183a2.491,2.491,0,0,0-1.8-.012c-.046.015-.067.113-.113.2a2.262,2.262,0,0,1-1.022.117l-5.363.006c-.381-.047-.771.071-1.13-.151.031-.142-.076-.176-.211-.211a2.509,2.509,0,0,0-1.656.047c-.113.048-.2.1-.183.188a1.805,1.805,0,0,0-.229.245,7.433,7.433,0,0,0-.669,1.157,11.565,11.565,0,0,0-.489,1.739c-.195.912-.349,1.834-.513,2.752-.039.214-.052.431-.077.647v.945c.041.24.07.482.126.719a1.619,1.619,0,0,0,.92,1.211,1.386,1.386,0,0,0,1.557-.315,2.749,2.749,0,0,0,.751-1.166c.206-.552.41-1.1.6-1.658a.522.522,0,0,1,.271-.32h2.914v5.737h-2.423a.255.255,0,0,0-.254.254v2.243a.255.255,0,0,1-.254.254h-.65a.255.255,0,0,0-.254.254v1.376a.255.255,0,0,0,.254.254h8.481a.255.255,0,0,0,.254-.254v-1.376a.255.255,0,0,0-.254-.254h-.651a.255.255,0,0,1-.254-.254v-2.243a.255.255,0,0,0-.254-.254h-2.423v-5.736h2.862l.032-.021a.6.6,0,0,1,.293.338c.245.676.492,1.352.765,2.018a2.208,2.208,0,0,0,.83.989,1.394,1.394,0,0,0,2.03-.528,3.121,3.121,0,0,0,.3-1.093c.007-.06.02-.119.03-.177V702.8C1082.581,702.471,1082.549,702.143,1082.5,701.819Z" transform="translate(-1066.517 -695.41)" fill="#171619" stroke="rgba(0,0,0,0)" stroke-width="1"/>
</svg>
