<svg id="Group_2438" data-name="Group 2438" xmlns="http://www.w3.org/2000/svg" width="16.39" height="13.861" viewBox="0 0 16.39 13.861">
  <path id="Path_5730" data-name="Path 5730" d="M1498.893,1390.264l-.049-.032a4.878,4.878,0,0,0-3.652-.621,6.328,6.328,0,0,0-1.751.623l-.047.028-1.98-1.217c-.531-.377-.914-.673-.956-.705l-.052-.041.015-.058a18.637,18.637,0,0,1,.777-2.25l-3.172-3.862.168-.221a2.164,2.164,0,0,1,.342-.353,2.026,2.026,0,0,1,.6-.347l.235-.084,1.953,2.444a1.47,1.47,0,0,1,.125-1,3.7,3.7,0,0,1,.46-.769l.055-.068.071.052a3.86,3.86,0,0,1,.521.66l0-.006.006-.009,0,0h0l.008-.012v-.012l.025-.021.033-.042.005-.007.039-.045.009-.01.031-.034a5.6,5.6,0,0,1,.364-.451l.008-.009.048-.053.066-.07.044-.046a9.361,9.361,0,0,1-.919-1.817l-.022-.055-.012-.028a.557.557,0,0,0-.039-.079l0,0c-.028-.045-.049-.049-.069-.049a.185.185,0,0,0-.053.01l-.033.012a1.422,1.422,0,0,0-.471.408l-.094.128-.063-.146a1.627,1.627,0,0,1-.121-.488c0-.009,0-.018,0-.027v-.031c0-.014,0-.028,0-.043s0-.022,0-.033v-.01c0-.008,0-.016,0-.024v-.007q0-.044.005-.085l0-.035,0-.015c0-.006,0-.013,0-.02v-.01l0-.031,0-.027,0-.015.006-.033c0-.012,0-.025.008-.038l.007-.034.019-.075.021-.072.011-.035c.008-.022.016-.044.024-.066l.019-.048v0l.019-.045.008-.019,0,0,.008-.017,0-.005.007-.015.013-.028,0-.015.005-.005.016-.032,0-.008.019-.035,0-.008c.015-.027.03-.054.046-.08l.01-.016.02-.032.028-.043.029-.043.03-.042.03-.042.03-.04.063-.08.032-.039.033-.038.034-.038.034-.037.034-.036.035-.036.035-.035.034-.033.045-.043.029-.027.033-.03.01-.009.028-.025.033-.029.039-.033a3.729,3.729,0,0,1,.468-.334c.145-.089.29-.169.412-.235.165-.089.334-.175.48-.249l.24-.122.042-.019c.031-.014.077-.034.11-.051l.187-.125v.172a6.108,6.108,0,0,1-.367.758,3.487,3.487,0,0,0,.284,3.437l.079-.056.014-.01.016-.011.017-.012-.063-.129.011-.035c.071-.229.357-.471.852-.717l0,0a3.2,3.2,0,0,1,.506-.172,2.952,2.952,0,0,0-.142-.44,1.12,1.12,0,0,0-.126-.237h0l-.027-.032-.156-.169.007-.009h0l.048-.06.133-.156.01-.013a3.289,3.289,0,0,0,.348-.539l.02-.041a2.514,2.514,0,0,0,.109-.25l.016-.048.251-.784.077.011c.057.008.071.051.084.093l.218.679c.005.016.011.033.017.049a2.506,2.506,0,0,0,.109.25l.021.041a3.293,3.293,0,0,0,.348.538l.009.011,0,0,.181.213,0,0,.008.009-.156.169-.029.034a1.148,1.148,0,0,0-.125.236,2.951,2.951,0,0,0-.141.44,3.205,3.205,0,0,1,.506.172l0,0c.495.247.781.488.851.717l.011.035-.063.129.015.01.016.011.015.011.08.057a3.486,3.486,0,0,0,.284-3.437l-.429-.861.161.012c.017,0,.017,0,.757.348l.017.008.006,0,.069.035.016.008.007,0,0,0,.06.032.1.058.028.016.018.01.027.016.1.064.041.026.051.033c.057.037.113.075.168.113l.016.011.073.053.024.018.018.014.031.024c.053.04.107.083.162.129l.029.024a4.078,4.078,0,0,1,.336.316l.035.037.037.041.03.034.062.073.023.028.009.012.024.031.025.033.03.04.027.038.006.009.028.042.026.04.007.01.025.04.036.06.016.028c.013.023.024.045.035.066l.018.034.024.051.011.025.011.026,0,.008.006.015.009.022.012.03c0,.009.007.018.01.027s.012.034.019.052c.012.035.022.068.031.1s.018.07.026.106c0,.015.007.031.01.047l0,.01,0,.024,0,.012,0,.014a.16.16,0,0,1,0,.017l.005.036,0,.017v.008l0,.016c0,.006,0,.014,0,.021s0,.012,0,.017v.015a.1.1,0,0,1,0,.011s0,.007,0,.01,0,.028,0,.042c0,.053,0,.1,0,.149,0,.008,0,.017,0,.027v.022a1.655,1.655,0,0,1-.119.464l-.063.146-.094-.128a1.422,1.422,0,0,0-.472-.408l-.031-.011a.188.188,0,0,0-.054-.01c-.02,0-.04,0-.069.049l0,.005a.556.556,0,0,0-.037.076l-.012.029-.022.055a9.365,9.365,0,0,1-.919,1.817l.044.046,0,0,.049.052.013.014.045.049.012.014c.072.08.14.16.207.245.052.065.1.13.156.2l.03.033.009.01.019.022.011.013.007.009.009.011.032.041.025.021v.012l.008.011,0,0,0,.007.005.008.031-.046.073-.106.022-.032a2.069,2.069,0,0,1,.394-.477l.024-.018h.03c.053,0,.064.016.17.167a3.971,3.971,0,0,1,.214.34,2.12,2.12,0,0,1,.316,1,1,1,0,0,1-.042.3l1.952-2.443.236.084a2.029,2.029,0,0,1,.6.347,2.158,2.158,0,0,1,.342.353l.168.221-3.172,3.862a18.622,18.622,0,0,1,.777,2.25l.017.065Zm-7.377-1.37,1.881,1.156a6.548,6.548,0,0,1,1.753-.616,5.068,5.068,0,0,1,3.745.614l2.93-1.826a19.123,19.123,0,0,0-.773-2.212l-.021-.051,3.149-3.835-.08-.105a1.984,1.984,0,0,0-.313-.323,1.847,1.847,0,0,0-.541-.316l-.113-.04-2.668,3.339-.064-.128c-.034-.067-.065-.126-.093-.176l-.013-.024-.015-.028-.034-.069.063-.045a4.506,4.506,0,0,0,.464-.415.709.709,0,0,0,.207-.525,2.558,2.558,0,0,0-.528-1.282,3.977,3.977,0,0,0-.287.372l-.022.031-.072.1-.053.078-.014.022-.011.017-.015.022-.009.014,0,.006-.01.016-.006.005-.093.093-.055-.119-.006-.013-.006-.011-.007-.014-.008-.014-.016-.027,0,0-.007-.011-.012-.017,0,0,0-.007-.013-.018-.005-.007,0,0-.023-.023v-.007l-.017-.021-.024-.029-.017-.02,0-.005h0l-.033-.036-.007-.009c-.054-.074-.1-.139-.154-.2-.065-.082-.131-.16-.2-.238l-.011-.012-.043-.047-.013-.013-.047-.051,0-.005-.059-.061-.088-.088.043-.063a8.935,8.935,0,0,0,.943-1.843l.022-.055.014-.034a.725.725,0,0,1,.05-.1l0-.005a.262.262,0,0,1,.331-.117l.047.017a1.344,1.344,0,0,1,.444.341,1.26,1.26,0,0,0,.053-.258v-.022c0-.008,0-.015,0-.022,0-.045,0-.088,0-.135,0-.012,0-.024,0-.036l0-.037v-.017s0-.009,0-.014l0-.023s0-.01,0-.015l-.011-.072,0-.023,0-.012c0-.013-.005-.026-.008-.039-.007-.034-.016-.066-.024-.1s-.017-.059-.028-.091c-.005-.017-.011-.033-.017-.048l-.007-.019,0,0-.01-.024-.02-.047-.009-.021-.011-.024-.022-.047-.016-.031c-.011-.021-.021-.041-.031-.059l-.016-.028-.033-.056-.024-.039,0-.007-.025-.039-.026-.039-.006-.009-.025-.036-.028-.038-.023-.03-.023-.029-.006-.008-.023-.029-.059-.07-.028-.032-.035-.038-.033-.035a3.868,3.868,0,0,0-.322-.3l-.026-.022q-.08-.066-.156-.124l-.032-.024-.017-.013-.022-.016-.071-.052-.016-.011c-.053-.037-.107-.074-.162-.109l-.05-.032-.039-.024-.1-.062-.025-.015-.018-.011-.025-.015-.1-.056-.047-.025-.01-.005-.011-.006-.019-.01-.05-.025-.01-.005-.012-.006-.011-.005-.488-.228.24.481a3.7,3.7,0,0,1-.341,3.7l-.052.087-.146-.107-.093-.067-.017-.012-.014-.01-.078-.054-.065-.045.1-.2a1.625,1.625,0,0,0-.744-.574,3.013,3.013,0,0,0-.56-.181l-.09-.019.02-.09a3.292,3.292,0,0,1,.172-.56,1.277,1.277,0,0,1,.152-.28l.035-.041.049-.053,0,0h0l-.082-.1h0l-.015-.018a3.5,3.5,0,0,1-.369-.571l-.021-.043a2.665,2.665,0,0,1-.117-.27l-.019-.055-.141-.438-.141.438c-.005.018-.012.036-.018.054a2.688,2.688,0,0,1-.117.27l-.021.043a3.5,3.5,0,0,1-.369.572l-.015.018h0l-.083.1.053.057.031.037h0a1.229,1.229,0,0,1,.152.281,3.271,3.271,0,0,1,.172.56l.02.09-.09.019a3.009,3.009,0,0,0-.56.181,1.625,1.625,0,0,0-.744.574l.1.2-.065.045-.081.056-.014.01-.016.011-.09.065-.01.008-.138.1-.052-.087a3.7,3.7,0,0,1-.341-3.7l.233-.467-.2.1c-.145.073-.313.159-.475.247-.12.065-.263.143-.4.23a3.545,3.545,0,0,0-.445.318l-.037.032-.032.028-.034.03-.008.007-.027.025-.027.025-.043.041-.032.031-.033.034-.033.035-.032.034-.033.036-.032.036-.031.037-.03.036-.06.075-.029.038-.028.039-.028.039-.027.04-.026.04-.019.03-.008.014c-.016.027-.031.053-.045.079l-.005.01-.014.027,0,.008-.017.034,0,.015-.005,0-.014.029,0,.01-.006.013,0,.006-.006.014-.018.043-.018.046c-.007.02-.015.04-.021.06l-.01.032-.027.093,0,.007-.008.031-.007.032c0,.012,0,.023-.007.033l-.006.03,0,.014c0,.007,0,.015,0,.023l0,.031v.009l0,.014v.014l0,.034c0,.025,0,.05,0,.074v.006c0,.008,0,.016,0,.023v.009c0,.01,0,.02,0,.031s0,.025,0,.038l0,.053a1.229,1.229,0,0,0,.054.28,1.345,1.345,0,0,1,.444-.341l.048-.017a.263.263,0,0,1,.329.115l.006.01a.739.739,0,0,1,.049.1l.013.032.022.055a8.935,8.935,0,0,0,.943,1.844l.043.063-.063.063-.026.026-.059.061-.006.007-.059.063-.045.05-.007.008a5.42,5.42,0,0,0-.356.442l-.007.009-.032.036-.006.007-.036.042,0,.006-.018.022v.007l-.025.026-.005.007-.011.016,0,.007-.005.005-.011.016-.01.015,0,0-.016.026-.008.014-.006.01-.015.028-.071.148-.089-.138a6.74,6.74,0,0,0-.491-.672c-.207.287-.856,1.279-.321,1.807a4.586,4.586,0,0,0,.464.415l.068.049-.042.072c-.032.055-.072.129-.118.221l-.064.127-2.668-3.339-.112.04a1.845,1.845,0,0,0-.542.316,1.979,1.979,0,0,0-.313.323l-.08.105,3.149,3.835-.021.051a19.044,19.044,0,0,0-.775,2.218C1490.731,1388.319,1491.07,1388.577,1491.516,1388.893Zm8.964-4.585.019.035.127-.159C1500.563,1384.239,1500.514,1384.28,1500.479,1384.308Zm-8.668-.124.127.159.019-.035C1491.922,1384.28,1491.874,1384.239,1491.812,1384.184Z" transform="translate(-1488.023 -1376.402)" fill="#fff"/>
  <g id="Group_2168" data-name="Group 2168" transform="translate(10.852 10.833)">
    <path id="Path_5731" data-name="Path 5731" d="M1801.824,1705.65l.011-.015Z" transform="translate(-1801.171 -1704.397)" fill="#fff"/>
    <path id="Path_5732" data-name="Path 5732" d="M1794.518,1715.137l.046-.061Z" transform="translate(-1794.132 -1713.492)" fill="#fff"/>
    <path id="Path_5733" data-name="Path 5733" d="M1802.729,1704.293l.013-.018Z" transform="translate(-1802.042 -1703.088)" fill="#fff"/>
    <path id="Path_5734" data-name="Path 5734" d="M1806.332,1699.962l.01-.011Z" transform="translate(-1805.513 -1698.922)" fill="#fff"/>
    <path id="Path_5735" data-name="Path 5735" d="M1807.551,1698.4l.017-.018Z" transform="translate(-1806.687 -1697.411)" fill="#fff"/>
    <path id="Path_5736" data-name="Path 5736" d="M1803.732,1702.955l.014-.018Z" transform="translate(-1803.009 -1701.799)" fill="#fff"/>
    <path id="Path_5737" data-name="Path 5737" d="M1804.883,1701.611l.011-.014Z" transform="translate(-1804.117 -1700.508)" fill="#fff"/>
    <path id="Path_5738" data-name="Path 5738" d="M1811.638,1713.016l-.083.053Z" transform="translate(-1810.544 -1711.507)" fill="#fff"/>
    <path id="Path_5739" data-name="Path 5739" d="M1806.867,1716.047l-.082.051Z" transform="translate(-1805.95 -1714.427)" fill="#fff"/>
    <path id="Path_5740" data-name="Path 5740" d="M1804.459,1717.525l-.082.05Z" transform="translate(-1803.63 -1715.852)" fill="#fff"/>
    <path id="Path_5741" data-name="Path 5741" d="M1809.26,1714.541l-.083.052Z" transform="translate(-1808.255 -1712.977)" fill="#fff"/>
    <path id="Path_5742" data-name="Path 5742" d="M1808.824,1696.973l.019-.02Z" transform="translate(-1807.914 -1696.034)" fill="#fff"/>
    <path id="Path_5743" data-name="Path 5743" d="M1796.227,1712.5l.053-.075Z" transform="translate(-1795.778 -1710.937)" fill="#fff"/>
    <path id="Path_5744" data-name="Path 5744" d="M1803.518,1718.972l.027-.016-.028.016Z" transform="translate(-1802.802 -1717.229)" fill="#fff"/>
    <path id="Path_5745" data-name="Path 5745" d="M1811.658,1694.2l.014-.014Z" transform="translate(-1810.644 -1693.364)" fill="#fff"/>
    <path id="Path_5746" data-name="Path 5746" d="M1816.25,1689.552l.024-.022Z" transform="translate(-1815.068 -1688.882)" fill="#fff"/>
    <path id="Path_5747" data-name="Path 5747" d="M1797.8,1707.289h0c-.04.066-.081.128-.122.188.041-.059.082-.122.122-.187Z" transform="translate(-1797.18 -1705.991)" fill="#fff"/>
    <path id="Path_5748" data-name="Path 5748" d="M1814.792,1671.879s-.36.268-.722.6a2.566,2.566,0,0,0-.083.857l-.085.054a7.072,7.072,0,0,0,1.067-.77A2.8,2.8,0,0,0,1814.792,1671.879Z" transform="translate(-1812.806 -1671.879)" fill="#fff"/>
    <path id="Path_5749" data-name="Path 5749" d="M1817.7,1688.225l.024-.022Z" transform="translate(-1816.467 -1687.604)" fill="#fff"/>
    <path id="Path_5750" data-name="Path 5750" d="M1814.816,1690.916l.023-.022Z" transform="translate(-1813.687 -1690.197)" fill="#fff"/>
    <path id="Path_5751" data-name="Path 5751" d="M1813.4,1692.36l.019-.019Z" transform="translate(-1812.323 -1691.592)" fill="#fff"/>
    <path id="Path_5752" data-name="Path 5752" d="M1810.17,1695.578l.019-.019Z" transform="translate(-1809.21 -1694.69)" fill="#fff"/>
    <path id="Path_5753" data-name="Path 5753" d="M1794.006,1716.75l-.02.025h0Z" transform="translate(-1793.62 -1715.105)" fill="#fff"/>
    <path id="Path_5754" data-name="Path 5754" d="M1806.631,1717.426l-.006,0Z" transform="translate(-1805.795 -1715.756)" fill="#fff"/>
    <path id="Path_5755" data-name="Path 5755" d="M1818.369,1688.109l0,0,0,0Z" transform="translate(-1817.105 -1687.514)" fill="#fff"/>
    <path id="Path_5756" data-name="Path 5756" d="M1809.027,1715.949l-.006,0Z" transform="translate(-1808.104 -1714.334)" fill="#fff"/>
    <path id="Path_5757" data-name="Path 5757" d="M1808,1697.529l.03-.032Z" transform="translate(-1807.124 -1696.557)" fill="#fff"/>
    <path id="Path_5758" data-name="Path 5758" d="M1811.434,1714.459l0,0Z" transform="translate(-1810.424 -1712.898)" fill="#fff"/>
    <path id="Path_5759" data-name="Path 5759" d="M1804.274,1718.89l0,0Z" transform="translate(-1803.526 -1717.167)" fill="#fff"/>
    <path id="Path_5760" data-name="Path 5760" d="M1813.833,1712.971l0,0Z" transform="translate(-1812.736 -1711.464)" fill="#fff"/>
    <path id="Path_5761" data-name="Path 5761" d="M1812.047,1692.9l.05-.049Z" transform="translate(-1811.019 -1692.081)" fill="#fff"/>
    <path id="Path_5762" data-name="Path 5762" d="M1804.105,1702.01l.029-.035Z" transform="translate(-1803.368 -1700.871)" fill="#fff"/>
    <path id="Path_5763" data-name="Path 5763" d="M1803.082,1703.447l.024-.031Z" transform="translate(-1802.382 -1702.26)" fill="#fff"/>
    <path id="Path_5764" data-name="Path 5764" d="M1802.109,1704.79l.023-.032Z" transform="translate(-1801.445 -1703.552)" fill="#fff"/>
    <path id="Path_5765" data-name="Path 5765" d="M1809.338,1696.12l.031-.032Z" transform="translate(-1808.409 -1695.2)" fill="#fff"/>
    <path id="Path_5766" data-name="Path 5766" d="M1810.682,1694.606l.036-.036Z" transform="translate(-1809.703 -1693.738)" fill="#fff"/>
    <path id="Path_5767" data-name="Path 5767" d="M1801.027,1706.1l.029-.045Z" transform="translate(-1800.403 -1704.8)" fill="#fff"/>
    <path id="Path_5768" data-name="Path 5768" d="M1806.6,1698.92l.035-.039Z" transform="translate(-1805.769 -1697.891)" fill="#fff"/>
    <path id="Path_5769" data-name="Path 5769" d="M1805.189,1700.3l.042-.049Z" transform="translate(-1804.413 -1699.212)" fill="#fff"/>
    <path id="Path_5770" data-name="Path 5770" d="M1815.449,1690.172l.029-.027Z" transform="translate(-1814.296 -1689.475)" fill="#fff"/>
    <path id="Path_5771" data-name="Path 5771" d="M1816.916,1688.833l.029-.026Z" transform="translate(-1815.709 -1688.186)" fill="#fff"/>
    <path id="Path_5772" data-name="Path 5772" d="M1795.779,1714.485l.016-.022Z" transform="translate(-1795.347 -1712.902)" fill="#fff"/>
    <path id="Path_5773" data-name="Path 5773" d="M1813.93,1691.523l.033-.031Z" transform="translate(-1812.833 -1690.773)" fill="#fff"/>
    <path id="Path_5774" data-name="Path 5774" d="M1784.366,1689.187l.02-.025.046-.061.016-.022.053-.075c.041-.059.082-.122.122-.188h0l.029-.045.01-.015.023-.032.013-.018.024-.031.014-.018.029-.035.011-.014.042-.049.01-.011.035-.039.017-.018.03-.032.019-.02.031-.032.019-.019.036-.036.014-.014.05-.049.019-.019.032-.031.023-.022.029-.027.024-.023.029-.026.024-.022,0,0a2.569,2.569,0,0,0-.083.857l-.085.054,0,0-.083.053,0,0-.083.052-.006,0-.082.051-.006,0-.082.05,0,0-.027.016-.716.5A2.192,2.192,0,0,0,1784.366,1689.187Z" transform="translate(-1784 -1687.516)" fill="#fff"/>
  </g>
  <g id="Group_2169" data-name="Group 2169" transform="translate(3.369 10.833)">
    <path id="Path_5775" data-name="Path 5775" d="M1606.158,1689.529l.024.022Z" transform="translate(-1605.196 -1688.882)" fill="#fff"/>
    <path id="Path_5776" data-name="Path 5776" d="M1609.141,1692.342l.019.019Z" transform="translate(-1608.069 -1691.592)" fill="#fff"/>
    <path id="Path_5777" data-name="Path 5777" d="M1604.707,1688.2l.024.022Z" transform="translate(-1603.798 -1687.604)" fill="#fff"/>
    <path id="Path_5778" data-name="Path 5778" d="M1611.718,1714.587l-.083-.052Z" transform="translate(-1610.472 -1712.971)" fill="#fff"/>
    <path id="Path_5779" data-name="Path 5779" d="M1616.479,1699.957l.01.011Z" transform="translate(-1615.138 -1698.928)" fill="#fff"/>
    <path id="Path_5780" data-name="Path 5780" d="M1615.066,1698.381l.017.018Z" transform="translate(-1613.777 -1697.409)" fill="#fff"/>
    <path id="Path_5781" data-name="Path 5781" d="M1613.736,1696.957l.019.02Z" transform="translate(-1612.496 -1696.038)" fill="#fff"/>
    <path id="Path_5782" data-name="Path 5782" d="M1612.393,1695.561l.018.019Z" transform="translate(-1611.202 -1694.692)" fill="#fff"/>
    <path id="Path_5783" data-name="Path 5783" d="M1611.023,1694.182l.014.014Z" transform="translate(-1609.883 -1693.364)" fill="#fff"/>
    <path id="Path_5784" data-name="Path 5784" d="M1607.623,1690.895l.023.022Z" transform="translate(-1606.607 -1690.197)" fill="#fff"/>
    <path id="Path_5785" data-name="Path 5785" d="M1614.133,1716.1l-.082-.051Z" transform="translate(-1612.799 -1714.427)" fill="#fff"/>
    <path id="Path_5786" data-name="Path 5786" d="M1609.326,1713.069l-.084-.053Z" transform="translate(-1608.167 -1711.507)" fill="#fff"/>
    <path id="Path_5787" data-name="Path 5787" d="M1616.445,1717.525l.059.036h0Z" transform="translate(-1615.106 -1715.852)" fill="#fff"/>
    <path id="Path_5788" data-name="Path 5788" d="M1620.963,1705.641l.01.015Z" transform="translate(-1619.458 -1704.403)" fill="#fff"/>
    <path id="Path_5789" data-name="Path 5789" d="M1580.813,1672.474c-.362-.327-.722-.6-.722-.6a2.8,2.8,0,0,0-.178.736,7.069,7.069,0,0,0,1.067.77l-.085-.054A2.566,2.566,0,0,0,1580.813,1672.474Z" transform="translate(-1579.908 -1671.879)" fill="#fff"/>
    <path id="Path_5790" data-name="Path 5790" d="M1618.967,1702.941l.014.017Z" transform="translate(-1617.535 -1701.802)" fill="#fff"/>
    <path id="Path_5791" data-name="Path 5791" d="M1619.988,1704.275l.013.018Z" transform="translate(-1618.518 -1703.088)" fill="#fff"/>
    <path id="Path_5792" data-name="Path 5792" d="M1622.879,1708.633l.051.078Z" transform="translate(-1621.303 -1707.285)" fill="#fff"/>
    <path id="Path_5793" data-name="Path 5793" d="M1626.465,1713.943l.045.062Z" transform="translate(-1624.758 -1712.401)" fill="#fff"/>
    <path id="Path_5794" data-name="Path 5794" d="M1617.881,1701.6l.011.014Z" transform="translate(-1616.489 -1700.506)" fill="#fff"/>
    <path id="Path_5795" data-name="Path 5795" d="M1622.081,1707.35l-.03-.049h0Z" transform="translate(-1620.505 -1706.002)" fill="#fff"/>
    <path id="Path_5796" data-name="Path 5796" d="M1627.73,1715.663l-.028-.038.028.038Z" transform="translate(-1625.949 -1714.021)" fill="#fff"/>
    <path id="Path_5797" data-name="Path 5797" d="M1609.672,1692.85l.05.049Z" transform="translate(-1608.581 -1692.081)" fill="#fff"/>
    <path id="Path_5798" data-name="Path 5798" d="M1619.338,1703.416l.024.031Z" transform="translate(-1617.892 -1702.26)" fill="#fff"/>
    <path id="Path_5799" data-name="Path 5799" d="M1611.41,1694.568l.036.036Z" transform="translate(-1610.255 -1693.736)" fill="#fff"/>
    <path id="Path_5800" data-name="Path 5800" d="M1616.738,1700.25l.042.049Z" transform="translate(-1615.388 -1699.21)" fill="#fff"/>
    <path id="Path_5801" data-name="Path 5801" d="M1616.293,1717.429l-.006,0Z" transform="translate(-1614.953 -1715.756)" fill="#fff"/>
    <path id="Path_5802" data-name="Path 5802" d="M1618.193,1701.977l.028.035Z" transform="translate(-1616.79 -1700.873)" fill="#fff"/>
    <path id="Path_5803" data-name="Path 5803" d="M1612.9,1696.08l.031.032Z" transform="translate(-1611.687 -1695.193)" fill="#fff"/>
    <path id="Path_5804" data-name="Path 5804" d="M1614.242,1697.494l.03.033Z" transform="translate(-1612.983 -1696.555)" fill="#fff"/>
    <path id="Path_5805" data-name="Path 5805" d="M1615.521,1698.881l.035.039Z" transform="translate(-1614.215 -1697.891)" fill="#fff"/>
    <path id="Path_5806" data-name="Path 5806" d="M1620.342,1704.756l.023.032Z" transform="translate(-1618.859 -1703.551)" fill="#fff"/>
    <path id="Path_5807" data-name="Path 5807" d="M1608.256,1691.492l.033.031Z" transform="translate(-1607.217 -1690.773)" fill="#fff"/>
    <path id="Path_5808" data-name="Path 5808" d="M1624.266,1710.766c.027.04.054.079.081.116C1624.319,1710.845,1624.292,1710.806,1624.266,1710.766Z" transform="translate(-1622.639 -1709.34)" fill="#fff"/>
    <path id="Path_5809" data-name="Path 5809" d="M1611.529,1714.467l0,0Z" transform="translate(-1610.366 -1712.903)" fill="#fff"/>
    <path id="Path_5810" data-name="Path 5810" d="M1613.9,1715.953l-.006,0Z" transform="translate(-1612.648 -1714.334)" fill="#fff"/>
    <path id="Path_5811" data-name="Path 5811" d="M1609.169,1712.972l0,0Z" transform="translate(-1608.093 -1711.464)" fill="#fff"/>
    <path id="Path_5812" data-name="Path 5812" d="M1606.822,1690.145l.029.027Z" transform="translate(-1605.835 -1689.475)" fill="#fff"/>
    <path id="Path_5813" data-name="Path 5813" d="M1604.607,1688.109h0l0,0Z" transform="translate(-1603.702 -1687.514)" fill="#fff"/>
    <path id="Path_5814" data-name="Path 5814" d="M1605.367,1688.807l.029.026Z" transform="translate(-1604.434 -1688.186)" fill="#fff"/>
    <path id="Path_5815" data-name="Path 5815" d="M1621.244,1706.051l.03.046Z" transform="translate(-1619.729 -1704.798)" fill="#fff"/>
    <path id="Path_5816" data-name="Path 5816" d="M1605.483,1689.158l-.028-.038-.045-.062c-.027-.037-.054-.076-.081-.116l-.051-.078-.03-.049h0l-.03-.046-.01-.015-.023-.032-.013-.018-.024-.031-.014-.018-.028-.035-.011-.014-.042-.049-.01-.011-.035-.039-.017-.018-.03-.032-.019-.02-.031-.032-.018-.019-.036-.036-.014-.014-.05-.049-.019-.019-.033-.031-.023-.022-.029-.027-.024-.023-.029-.026-.024-.022,0,0a2.569,2.569,0,0,1,.083.857l.084.054,0,0,.084.053,0,0,.083.052.006,0,.082.051.006,0,.059.036.023,0,.818.573S1605.5,1689.4,1605.483,1689.158Z" transform="translate(-1603.702 -1687.516)" fill="#fff"/>
  </g>
  <path id="Path_5817" data-name="Path 5817" d="M1887.79,1538.745c-.07-.132-.188-.337-.188-.337a.949.949,0,0,1,.433.038l0,.009-.238.293Z" transform="translate(-1872.952 -1532.462)" fill="#fff"/>
  <path id="Path_5818" data-name="Path 5818" d="M1893.381,1540.208a1.7,1.7,0,0,1-.344-.055l.238-.293C1893.408,1540.127,1893.381,1540.208,1893.381,1540.208Z" transform="translate(-1878.188 -1533.866)" fill="#fff"/>
  <path id="Path_5819" data-name="Path 5819" d="M1897.946,1527.332c-.07-.132-.188-.337-.188-.337a.95.95,0,0,1,.433.038l0,.009-.238.293Z" transform="translate(-1882.735 -1521.468)" fill="#fff"/>
  <path id="Path_5820" data-name="Path 5820" d="M1903.537,1528.8a1.691,1.691,0,0,1-.344-.055l.238-.293C1903.565,1528.715,1903.537,1528.8,1903.537,1528.8Z" transform="translate(-1887.972 -1522.873)" fill="#fff"/>
  <path id="Path_5821" data-name="Path 5821" d="M1879.207,1549.938a1.041,1.041,0,0,1,.414.031l-.235.289C1879.316,1550.126,1879.207,1549.938,1879.207,1549.938Z" transform="translate(-1864.865 -1543.57)" fill="#fff"/>
  <path id="Path_5822" data-name="Path 5822" d="M1884.464,1551.321a1.755,1.755,0,0,1-.355-.058l-.009-.017.235-.289.018.007C1884.492,1551.239,1884.464,1551.321,1884.464,1551.321Z" transform="translate(-1869.578 -1544.557)" fill="#fff"/>
  <path id="Path_5823" data-name="Path 5823" d="M1870.3,1561.425a1.074,1.074,0,0,1,.4.027l-.229.281C1870.407,1561.6,1870.3,1561.425,1870.3,1561.425Z" transform="translate(-1856.289 -1554.635)" fill="#fff"/>
  <path id="Path_5824" data-name="Path 5824" d="M1875.394,1562.7a1.762,1.762,0,0,1-.355-.058l-.015-.029.229-.281.031.011C1875.422,1562.618,1875.394,1562.7,1875.394,1562.7Z" transform="translate(-1860.834 -1555.515)" fill="#fff"/>
  <path id="Path_5825" data-name="Path 5825" d="M1862.258,1571.066a1.062,1.062,0,0,1,.408.029l-.232.285C1862.363,1571.248,1862.258,1571.066,1862.258,1571.066Z" transform="translate(-1848.537 -1563.922)" fill="#fff"/>
  <path id="Path_5826" data-name="Path 5826" d="M1867.428,1572.39a1.758,1.758,0,0,1-.355-.058l-.012-.023.232-.285.025.009C1867.456,1572.307,1867.428,1572.39,1867.428,1572.39Z" transform="translate(-1853.163 -1564.851)" fill="#fff"/>
  <path id="Path_5827" data-name="Path 5827" d="M1854.422,1580.722a1.066,1.066,0,0,1,.407.029l-.231.285C1854.527,1580.9,1854.422,1580.722,1854.422,1580.722Z" transform="translate(-1840.988 -1573.224)" fill="#fff"/>
  <path id="Path_5828" data-name="Path 5828" d="M1859.588,1582.042a1.762,1.762,0,0,1-.355-.058l-.013-.024.231-.285.026.009C1859.616,1581.96,1859.588,1582.042,1859.588,1582.042Z" transform="translate(-1845.611 -1574.15)" fill="#fff"/>
  <path id="Path_5829" data-name="Path 5829" d="M1846.471,1590.881a1.084,1.084,0,0,1,.4.026l-.227.279C1846.572,1591.055,1846.471,1590.881,1846.471,1590.881Z" transform="translate(-1833.328 -1583.011)" fill="#fff"/>
  <path id="Path_5830" data-name="Path 5830" d="M1851.518,1592.129a1.76,1.76,0,0,1-.355-.058l-.017-.032.227-.279.035.012C1851.547,1592.046,1851.518,1592.129,1851.518,1592.129Z" transform="translate(-1837.833 -1583.864)" fill="#fff"/>
  <path id="Path_5831" data-name="Path 5831" d="M1838.385,1600.863a1.084,1.084,0,0,1,.4.026l-.227.279C1838.486,1601.038,1838.385,1600.863,1838.385,1600.863Z" transform="translate(-1825.539 -1592.628)" fill="#fff"/>
  <path id="Path_5832" data-name="Path 5832" d="M1843.432,1602.113a1.756,1.756,0,0,1-.355-.058l-.017-.032.227-.279a.359.359,0,0,1,.035.012C1843.461,1602.031,1843.432,1602.113,1843.432,1602.113Z" transform="translate(-1830.044 -1593.482)" fill="#fff"/>
  <path id="Path_5833" data-name="Path 5833" d="M1834.223,1610.959l.1.219.151-.186A.932.932,0,0,0,1834.223,1610.959Z" transform="translate(-1821.53 -1602.359)" fill="#fff"/>
  <path id="Path_5834" data-name="Path 5834" d="M1837.1,1611.854a.31.31,0,0,0-.035-.012l-.151.186.068.154a1.3,1.3,0,0,0,.229.029S1837.235,1612.128,1837.1,1611.854Z" transform="translate(-1824.119 -1603.21)" fill="#fff"/>
  <path id="Path_5835" data-name="Path 5835" d="M1515.518,1528.37a1,1,0,0,0-.425.035l.24.3C1515.4,1528.568,1515.518,1528.37,1515.518,1528.37Z" transform="translate(-1514.101 -1522.792)" fill="#fff"/>
  <path id="Path_5836" data-name="Path 5836" d="M1511.8,1529.845a1.76,1.76,0,0,0,.355-.058l0-.007-.24-.3-.008,0C1511.775,1529.762,1511.8,1529.845,1511.8,1529.845Z" transform="translate(-1510.929 -1523.872)" fill="#fff"/>
  <path id="Path_5837" data-name="Path 5837" d="M1523.78,1538.745c.07-.132.188-.337.188-.337a.949.949,0,0,0-.433.038l0,.009.238.293Z" transform="translate(-1522.229 -1532.462)" fill="#fff"/>
  <path id="Path_5838" data-name="Path 5838" d="M1520.58,1540.208a1.7,1.7,0,0,0,.344-.055l-.238-.293C1520.553,1540.127,1520.58,1540.208,1520.58,1540.208Z" transform="translate(-1519.384 -1533.866)" fill="#fff"/>
  <path id="Path_5839" data-name="Path 5839" d="M1532.965,1549.938a1.041,1.041,0,0,0-.414.031l.235.289C1532.856,1550.126,1532.965,1549.938,1532.965,1549.938Z" transform="translate(-1530.918 -1543.57)" fill="#fff"/>
  <path id="Path_5840" data-name="Path 5840" d="M1528.973,1551.321a1.755,1.755,0,0,0,.355-.058l.009-.017-.235-.289-.018.007C1528.945,1551.239,1528.973,1551.321,1528.973,1551.321Z" transform="translate(-1527.47 -1544.557)" fill="#fff"/>
  <path id="Path_5841" data-name="Path 5841" d="M1542.2,1561.425a1.074,1.074,0,0,0-.4.027l.228.281C1542.1,1561.6,1542.2,1561.425,1542.2,1561.425Z" transform="translate(-1539.829 -1554.635)" fill="#fff"/>
  <path id="Path_5842" data-name="Path 5842" d="M1537.874,1562.7a1.762,1.762,0,0,0,.355-.058l.015-.029-.228-.281-.031.011C1537.846,1562.618,1537.874,1562.7,1537.874,1562.7Z" transform="translate(-1536.044 -1555.515)" fill="#fff"/>
  <path id="Path_5843" data-name="Path 5843" d="M1550.087,1571.066a1.062,1.062,0,0,0-.408.029l.232.285C1549.982,1571.248,1550.087,1571.066,1550.087,1571.066Z" transform="translate(-1547.419 -1563.922)" fill="#fff"/>
  <path id="Path_5844" data-name="Path 5844" d="M1545.921,1572.39a1.76,1.76,0,0,0,.355-.058l.012-.023-.232-.285-.025.009C1545.893,1572.307,1545.921,1572.39,1545.921,1572.39Z" transform="translate(-1543.796 -1564.851)" fill="#fff"/>
  <path id="Path_5845" data-name="Path 5845" d="M1557.933,1580.722a1.066,1.066,0,0,0-.407.029l.231.285C1557.827,1580.9,1557.933,1580.722,1557.933,1580.722Z" transform="translate(-1554.977 -1573.224)" fill="#fff"/>
  <path id="Path_5846" data-name="Path 5846" d="M1553.756,1582.042a1.76,1.76,0,0,0,.355-.058l.013-.024-.231-.285-.026.009C1553.728,1581.96,1553.756,1582.042,1553.756,1582.042Z" transform="translate(-1551.344 -1574.15)" fill="#fff"/>
  <path id="Path_5847" data-name="Path 5847" d="M1566.123,1590.881a1.085,1.085,0,0,0-.4.026l.227.279C1566.022,1591.055,1566.123,1590.881,1566.123,1590.881Z" transform="translate(-1562.876 -1583.011)" fill="#fff"/>
  <path id="Path_5848" data-name="Path 5848" d="M1561.707,1592.129a1.76,1.76,0,0,0,.355-.058l.017-.032-.227-.279-.035.012C1561.678,1592.046,1561.707,1592.129,1561.707,1592.129Z" transform="translate(-1559.003 -1583.864)" fill="#fff"/>
  <path id="Path_5849" data-name="Path 5849" d="M1574.211,1600.863a1.084,1.084,0,0,0-.4.026l.227.279C1574.11,1601.038,1574.211,1600.863,1574.211,1600.863Z" transform="translate(-1570.667 -1592.628)" fill="#fff"/>
  <path id="Path_5850" data-name="Path 5850" d="M1569.794,1602.113a1.755,1.755,0,0,0,.355-.058l.017-.032-.227-.279-.035.012C1569.766,1602.031,1569.794,1602.113,1569.794,1602.113Z" transform="translate(-1566.794 -1593.482)" fill="#fff"/>
  <path id="Path_5851" data-name="Path 5851" d="M1582.266,1610.959q-.048.1-.1.219l-.151-.186A.932.932,0,0,1,1582.266,1610.959Z" transform="translate(-1578.569 -1602.359)" fill="#fff"/>
  <path id="Path_5852" data-name="Path 5852" d="M1578.109,1611.854a.31.31,0,0,1,.035-.012l.151.186-.068.154a1.3,1.3,0,0,1-.229.029S1577.971,1612.128,1578.109,1611.854Z" transform="translate(-1574.698 -1603.21)" fill="#fff"/>
  <path id="Path_5853" data-name="Path 5853" d="M1700.876,1527.14a.418.418,0,0,1,.4.349.49.49,0,0,0,.01-.1.409.409,0,1,0-.815,0,.49.49,0,0,0,.01.1A.418.418,0,0,1,1700.876,1527.14Z" transform="translate(-1692.68 -1521.422)" fill="#fff"/>
  <path id="Path_5854" data-name="Path 5854" d="M1705.488,1556.066a.366.366,0,0,1-.241.114h0a.366.366,0,0,1-.241-.114.586.586,0,0,0,.234.349l.007,0,.01,0A.586.586,0,0,0,1705.488,1556.066Z" transform="translate(-1697.047 -1549.479)" fill="#fff"/>
  <path id="Path_5855" data-name="Path 5855" d="M1648.985,1555.692a.364.364,0,0,0,.2-.133.335.335,0,0,1-.233.005,1.156,1.156,0,0,0,.664-.561,4.4,4.4,0,0,1-1.69.4.5.5,0,1,1-.99,0,4.4,4.4,0,0,1-1.69-.4,1.156,1.156,0,0,0,.664.561.335.335,0,0,1-.233-.005.364.364,0,0,0,.2.133,2.158,2.158,0,0,1-.885-.4,1.032,1.032,0,0,0,.841.626,8.646,8.646,0,0,0,1.571.16h.053a8.646,8.646,0,0,0,1.571-.16,1.031,1.031,0,0,0,.841-.626A2.158,2.158,0,0,1,1648.985,1555.692Z" transform="translate(-1639.237 -1548.456)" fill="#fff"/>
  <path id="Path_5856" data-name="Path 5856" d="M1593.745,1550.361a1.17,1.17,0,0,0-.2.693,7.653,7.653,0,0,1,.887.723,2.242,2.242,0,0,1,.425.684,3.919,3.919,0,0,0-.534-1.312C1593.952,1550.641,1593.745,1550.361,1593.745,1550.361Z" transform="translate(-1589.675 -1543.983)" fill="#fff"/>
  <path id="Path_5857" data-name="Path 5857" d="M1605.337,1607.389a2.14,2.14,0,0,0-.233.522,6.006,6.006,0,0,0,1.474,1.306,2.115,2.115,0,0,1-.356-.546A4.2,4.2,0,0,0,1605.337,1607.389Z" transform="translate(-1600.81 -1598.92)" fill="#fff"/>
  <path id="Path_5858" data-name="Path 5858" d="M1589.9,1637.5s-.361.726-.313.859a4.659,4.659,0,0,0,2.016,1.176,3.132,3.132,0,0,1-.659-.722A3.409,3.409,0,0,0,1589.9,1637.5Z" transform="translate(-1585.861 -1627.929)" fill="#fff"/>
  <path id="Path_5859" data-name="Path 5859" d="M1778.974,1607.389a2.14,2.14,0,0,1,.233.522,6.006,6.006,0,0,1-1.474,1.306,2.117,2.117,0,0,0,.356-.546A4.2,4.2,0,0,1,1778.974,1607.389Z" transform="translate(-1767.111 -1598.92)" fill="#fff"/>
  <path id="Path_5860" data-name="Path 5860" d="M1780.09,1637.5s.361.726.313.859a4.66,4.66,0,0,1-2.016,1.176,3.135,3.135,0,0,0,.659-.722A3.409,3.409,0,0,1,1780.09,1637.5Z" transform="translate(-1767.741 -1627.929)" fill="#fff"/>
  <path id="Path_5861" data-name="Path 5861" d="M1593.745,1550.361a1.17,1.17,0,0,0-.2.693s.08.056.2.142A1.2,1.2,0,0,1,1593.745,1550.361Z" transform="translate(-1589.675 -1543.983)" fill="#fff"/>
  <path id="Path_5862" data-name="Path 5862" d="M1610.2,1567.255l-.129-.175a.963.963,0,0,1-.049.54,3.541,3.541,0,0,1,.286.263,2.242,2.242,0,0,1,.425.684A3.919,3.919,0,0,0,1610.2,1567.255Z" transform="translate(-1605.552 -1560.089)" fill="#fff"/>
  <path id="Path_5863" data-name="Path 5863" d="M1605.336,1607.389a2.14,2.14,0,0,0-.233.522.794.794,0,0,0,.137.177A2.486,2.486,0,0,1,1605.336,1607.389Z" transform="translate(-1600.81 -1598.92)" fill="#fff"/>
  <path id="Path_5864" data-name="Path 5864" d="M1624.773,1624.97a5.139,5.139,0,0,0-.369-.662,1.582,1.582,0,0,1-.044.635,4.624,4.624,0,0,0,.769.573A2.113,2.113,0,0,1,1624.773,1624.97Z" transform="translate(-1619.361 -1615.219)" fill="#fff"/>
  <path id="Path_5865" data-name="Path 5865" d="M1589.9,1637.5s-.361.726-.313.859a.766.766,0,0,0,.186.2A2.8,2.8,0,0,1,1589.9,1637.5Z" transform="translate(-1585.861 -1627.929)" fill="#fff"/>
  <path id="Path_5866" data-name="Path 5866" d="M1616.974,1659.578c-.065-.126-.171-.32-.3-.523a2.527,2.527,0,0,1-.068.807,4.987,4.987,0,0,0,1.029.437A3.132,3.132,0,0,1,1616.974,1659.578Z" transform="translate(-1611.889 -1648.691)" fill="#fff"/>
  <path id="Path_5867" data-name="Path 5867" d="M1580.092,1671.879a2.8,2.8,0,0,0-.178.736,1.016,1.016,0,0,0,.21.183A2.808,2.808,0,0,1,1580.092,1671.879Z" transform="translate(-1576.539 -1661.045)" fill="#fff"/>
  <path id="Path_5868" data-name="Path 5868" d="M1602.843,1568c.009.027-.017.061-.058.076s-.081.005-.09-.022.017-.061.058-.076S1602.834,1567.977,1602.843,1568Z" transform="translate(-1598.49 -1560.952)" fill="#fff"/>
  <path id="Path_5869" data-name="Path 5869" d="M1602.889,1567.752a.091.091,0,0,1,.014.034.131.131,0,0,1-.119.138.169.169,0,0,1-.091-.007.144.144,0,0,0,.148.051.131.131,0,0,0,.119-.138A.107.107,0,0,0,1602.889,1567.752Z" transform="translate(-1598.489 -1560.736)" fill="#fff"/>
  <path id="Path_5870" data-name="Path 5870" d="M1703.569,1526.941a.391.391,0,0,0-.305.152.4.4,0,0,0,.173.071.369.369,0,0,1,.265,0,.411.411,0,0,0,.173-.07A.392.392,0,0,0,1703.569,1526.941Z" transform="translate(-1695.372 -1521.422)" fill="#fff"/>
  <path id="Path_5871" data-name="Path 5871" d="M1711.531,1465.714h0Z" transform="translate(-1703.337 -1462.438)" fill="#fff"/>
  <path id="Path_5872" data-name="Path 5872" d="M1711.535,1465.714h0Z" transform="translate(-1703.34 -1462.438)" fill="#fff"/>
  <path id="Path_5873" data-name="Path 5873" d="M1646.4,1555.829a1.642,1.642,0,0,1-.528-.2,2.381,2.381,0,0,0,.442-.053c-.679-.111-.841-.476-.841-.476h0c-.074-.029-.15-.061-.225-.1a1.156,1.156,0,0,0,.664.561.335.335,0,0,1-.233-.005.364.364,0,0,0,.2.133,2.158,2.158,0,0,1-.885-.4A1.6,1.6,0,0,0,1646.4,1555.829Z" transform="translate(-1639.237 -1548.456)" fill="#fff"/>
  <path id="Path_5874" data-name="Path 5874" d="M1811.586,1607.389a2.144,2.144,0,0,1,.233.522.8.8,0,0,1-.137.177A2.486,2.486,0,0,0,1811.586,1607.389Z" transform="translate(-1799.723 -1598.92)" fill="#fff"/>
  <path id="Path_5875" data-name="Path 5875" d="M1778.089,1624.97a5.139,5.139,0,0,1,.369-.662,1.582,1.582,0,0,0,.044.635,4.624,4.624,0,0,1-.769.573A2.116,2.116,0,0,0,1778.089,1624.97Z" transform="translate(-1767.111 -1615.219)" fill="#fff"/>
  <path id="Path_5876" data-name="Path 5876" d="M1824.838,1637.5s.361.726.313.859a.769.769,0,0,1-.186.2A2.8,2.8,0,0,0,1824.838,1637.5Z" transform="translate(-1812.489 -1627.929)" fill="#fff"/>
  <path id="Path_5877" data-name="Path 5877" d="M1779.046,1659.578c.065-.126.171-.32.3-.523a2.523,2.523,0,0,0,.068.807,4.99,4.99,0,0,1-1.029.437A3.135,3.135,0,0,0,1779.046,1659.578Z" transform="translate(-1767.741 -1648.691)" fill="#fff"/>
  <path id="Path_5878" data-name="Path 5878" d="M1837.319,1671.879a2.8,2.8,0,0,1,.178.736,1.021,1.021,0,0,1-.21.183A2.811,2.811,0,0,0,1837.319,1671.879Z" transform="translate(-1824.482 -1661.045)" fill="#fff"/>
  <g id="Group_2170" data-name="Group 2170" transform="translate(11.22 6.352)">
    <path id="Path_5879" data-name="Path 5879" d="M1795.2,1549.641a1.2,1.2,0,0,1,.2.71,7.845,7.845,0,0,0-.909.741,2.3,2.3,0,0,0-.436.7,4.016,4.016,0,0,1,.548-1.345C1794.985,1549.928,1795.2,1549.641,1795.2,1549.641Z" transform="translate(-1794.055 -1549.641)" fill="#fff"/>
    <path id="Path_5880" data-name="Path 5880" d="M1825.227,1549.641a1.2,1.2,0,0,1,.2.71s-.082.058-.2.146A1.228,1.228,0,0,0,1825.227,1549.641Z" transform="translate(-1824.084 -1549.641)" fill="#fff"/>
    <path id="Path_5881" data-name="Path 5881" d="M1794.6,1566.959l.132-.18a.986.986,0,0,0,.05.553,3.64,3.64,0,0,0-.293.27,2.3,2.3,0,0,0-.436.7A4.016,4.016,0,0,1,1794.6,1566.959Z" transform="translate(-1794.055 -1566.151)" fill="#fff"/>
    <path id="Path_5882" data-name="Path 5882" d="M1817.229,1567.726c-.009.028.017.063.059.078s.083.005.092-.023-.017-.063-.059-.078S1817.238,1567.7,1817.229,1567.726Z" transform="translate(-1816.378 -1567.034)" fill="#fff"/>
    <path id="Path_5883" data-name="Path 5883" d="M1814.021,1567.471a.094.094,0,0,0-.014.034.134.134,0,0,0,.122.142.173.173,0,0,0,.093-.007.148.148,0,0,1-.152.052.134.134,0,0,1-.122-.142A.11.11,0,0,1,1814.021,1567.471Z" transform="translate(-1813.217 -1566.817)" fill="#fff"/>
  </g>
  <path id="Path_5884" data-name="Path 5884" d="M1739.7,1555.829a1.64,1.64,0,0,0,.528-.2,2.382,2.382,0,0,1-.442-.053c.679-.111.841-.476.841-.476h0c.074-.029.15-.061.225-.1a1.156,1.156,0,0,1-.664.561.335.335,0,0,0,.233-.005.365.365,0,0,1-.2.133,2.159,2.159,0,0,0,.885-.4A1.6,1.6,0,0,1,1739.7,1555.829Z" transform="translate(-1730.476 -1548.456)" fill="#fff"/>
  <path id="Path_5885" data-name="Path 5885" d="M1651.767,1505.467" transform="translate(-1645.763 -1500.735)" fill="#fff" stroke="#f7000d" stroke-miterlimit="10" stroke-width="0.668"/>
  <path id="Path_5886" data-name="Path 5886" d="M1654.091,1607.124c-.183.06-.532.561-.606.582a5.758,5.758,0,0,1-.729.067c-.093-.013-.471-.467-.606-.467s-.514.454-.606.467a5.762,5.762,0,0,1-.729-.067c-.073-.021-.423-.522-.606-.582a.3.3,0,0,0-.319.055s.6,1.519.673,1.744.136.248.308.417a4.735,4.735,0,0,0,.868.8,1.249,1.249,0,0,0,.822,0,4.735,4.735,0,0,0,.868-.8c.172-.169.232-.192.308-.417s.673-1.744.673-1.744A.3.3,0,0,0,1654.091,1607.124Z" transform="translate(-1643.954 -1598.641)" fill="#fff"/>
  <path id="Path_5887" data-name="Path 5887" d="M1729.336,1601.658a1,1,0,0,1,.849-.44s-.14.3-.218.331S1729.486,1601.561,1729.336,1601.658Z" transform="translate(-1720.488 -1592.976)" fill="#fff"/>
  <path id="Path_5888" data-name="Path 5888" d="M1650.207,1607.124c.183.06.532.561.606.582a5.762,5.762,0,0,0,.729.067c.093-.013.471-.467.606-.467s.514.454.606.467a5.758,5.758,0,0,0,.729-.067c.074-.021.423-.522.606-.582a.3.3,0,0,1,.319.055s-.6,1.519-.673,1.744-.136.248-.308.417a4.735,4.735,0,0,1-.868.8,1.249,1.249,0,0,1-.822,0,4.735,4.735,0,0,1-.868-.8c-.172-.169-.232-.192-.308-.417s-.673-1.744-.673-1.744A.3.3,0,0,1,1650.207,1607.124Z" transform="translate(-1643.954 -1598.641)" fill="#fff"/>
  <path id="Path_5889" data-name="Path 5889" d="M1671.44,1601.658a1,1,0,0,0-.849-.44s.14.3.218.331S1671.291,1601.561,1671.44,1601.658Z" transform="translate(-1663.898 -1592.976)" fill="#fff"/>
  <path id="Path_5890" data-name="Path 5890" d="M1699.016,1636.763h0a1.039,1.039,0,0,1,.477.249c-.153-.663-.477-1.793-.477-1.967,0,.174-.323,1.3-.477,1.967A1.039,1.039,0,0,1,1699.016,1636.763Z" transform="translate(-1690.821 -1625.562)" fill="#fff"/>
  <path id="Path_5891" data-name="Path 5891" d="M1698.922,1681.9a1.038,1.038,0,0,0-.477.249l0,.015a.417.417,0,0,0,.069.035,1.248,1.248,0,0,0,.822,0,.413.413,0,0,0,.069-.035l0-.015A1.038,1.038,0,0,0,1698.922,1681.9Z" transform="translate(-1690.727 -1670.703)" fill="#fff"/>
  <path id="Path_5892" data-name="Path 5892" d="M1755.793,1633.719h0Z" transform="translate(-1745.976 -1624.285)" fill="#fff"/>
  <path id="Path_5893" data-name="Path 5893" d="M1755.633,1635.135h0Z" transform="translate(-1745.821 -1625.649)" fill="#fff"/>
  <path id="Path_5894" data-name="Path 5894" d="M1755.481,1636.566v0Z" transform="translate(-1745.674 -1627.028)" fill="#fff"/>
  <path id="Path_5895" data-name="Path 5895" d="M1753.008,1638.457a1.659,1.659,0,0,0,.086-.5c-.007.073-.014.147-.022.215A.949.949,0,0,1,1753.008,1638.457Z" transform="translate(-1743.292 -1628.371)" fill="#fff"/>
  <path id="Path_5896" data-name="Path 5896" d="M1755.968,1631.689c0,.005,0,.013,0,.024Z" transform="translate(-1746.141 -1622.33)" fill="#fff"/>
  <path id="Path_5897" data-name="Path 5897" d="M1755.8,1632.336h0c0,.016,0,.033-.006.051C1755.8,1632.369,1755.8,1632.352,1755.8,1632.336Z" transform="translate(-1745.976 -1622.952)" fill="#fff"/>
  <path id="Path_5898" data-name="Path 5898" d="M1755.641,1633.725l-.006.052Z" transform="translate(-1745.823 -1624.29)" fill="#fff"/>
  <path id="Path_5899" data-name="Path 5899" d="M1731.577,1633.029c-.02.095,0,.19.106.174a4.242,4.242,0,0,0,.673-.788.949.949,0,0,0,.064-.281c.008-.068.015-.141.022-.215,0-.016,0-.033,0-.049v0l.005-.052h0c0-.017,0-.035.006-.052h0c0-.017,0-.034.006-.051s0-.018,0-.024c-.012.07-.022.149-.094.189a3.662,3.662,0,0,1-.587.268c-.018,0-.033-.019-.047-.053h0A5.14,5.14,0,0,1,1731.577,1633.029Z" transform="translate(-1722.641 -1622.33)" fill="#fff"/>
  <path id="Path_5900" data-name="Path 5900" d="M1667.912,1633.029c.02.095,0,.19-.106.174a4.242,4.242,0,0,1-.673-.788.953.953,0,0,1-.064-.281c-.008-.068-.015-.141-.022-.215l0-.049v0l-.005-.052h0l-.006-.052h0l-.006-.051c0-.01,0-.018,0-.024.012.07.022.149.094.189a3.662,3.662,0,0,0,.587.268c.018,0,.033-.019.047-.053h0A5.14,5.14,0,0,0,1667.912,1633.029Z" transform="translate(-1660.459 -1622.33)" fill="#fff"/>
  <path id="Path_5901" data-name="Path 5901" d="M1755.353,1636.629c0,.016,0,.032,0,.049C1755.349,1636.661,1755.351,1636.645,1755.353,1636.629Z" transform="translate(-1745.547 -1627.088)" fill="#fff"/>
  <path id="Path_5902" data-name="Path 5902" d="M1755.492,1635.156l-.005.052Z" transform="translate(-1745.68 -1625.669)" fill="#fff"/>
  <path id="Path_5903" data-name="Path 5903" d="M1703.352,1592.184a.147.147,0,0,1,.142,0,.288.288,0,0,0-.146-.134s0-.025.093-.052a1.983,1.983,0,0,1-.06-.315h-.239a1.98,1.98,0,0,1-.06.315c.089.026.093.052.093.052a.288.288,0,0,0-.146.134.147.147,0,0,1,.142,0,.392.392,0,0,0-.225.255.457.457,0,0,1,.63,0A.392.392,0,0,0,1703.352,1592.184Z" transform="translate(-1695.067 -1583.791)" fill="#fff"/>
  <path id="Path_5904" data-name="Path 5904" d="M1702.438,1649.952a.082.082,0,0,1,.009-.05.157.157,0,0,1,.033-.041.3.3,0,0,1,.09-.053.577.577,0,0,1,.4,0,.3.3,0,0,1,.089.053.155.155,0,0,1,.033.041.083.083,0,0,1,.009.05.09.09,0,0,0-.023-.041.151.151,0,0,0-.037-.027.353.353,0,0,0-.087-.032.855.855,0,0,0-.373,0,.355.355,0,0,0-.087.032.155.155,0,0,0-.037.027A.089.089,0,0,0,1702.438,1649.952Z" transform="translate(-1694.575 -1639.749)" fill="#fff"/>
  <path id="Path_5905" data-name="Path 5905" d="M1699.556,1660.292a.109.109,0,0,1,.012-.067.166.166,0,0,1,.02-.029l.011-.013.013-.012a.4.4,0,0,1,.118-.07.678.678,0,0,1,.13-.036.811.811,0,0,1,.268,0,.679.679,0,0,1,.13.036.4.4,0,0,1,.118.07l.013.012.011.013a.168.168,0,0,1,.02.029.108.108,0,0,1,.012.067.117.117,0,0,0-.03-.054.2.2,0,0,0-.049-.035.462.462,0,0,0-.114-.042.947.947,0,0,0-.122-.021c-.041,0-.082-.006-.124-.006s-.083,0-.124.006a.965.965,0,0,0-.122.021.463.463,0,0,0-.114.042.2.2,0,0,0-.049.035A.118.118,0,0,0,1699.556,1660.292Z" transform="translate(-1691.799 -1649.655)" fill="#fff"/>
  <path id="Path_5906" data-name="Path 5906" d="M1695.644,1670.613a.274.274,0,0,1,.047-.19.467.467,0,0,1,.148-.137.788.788,0,0,1,.77,0,.467.467,0,0,1,.148.137.274.274,0,0,1,.047.19.3.3,0,0,0-.085-.159.478.478,0,0,0-.147-.1.9.9,0,0,0-.7,0,.478.478,0,0,0-.147.1A.3.3,0,0,0,1695.644,1670.613Z" transform="translate(-1688.029 -1659.414)" fill="#fff"/>
  <path id="Path_5907" data-name="Path 5907" d="M1717.365,1616.355l.01.008Z" transform="translate(-1708.957 -1607.558)" fill="#fff"/>
  <path id="Path_5908" data-name="Path 5908" d="M1683.529,1624.725l.02,0Z" transform="translate(-1676.361 -1615.62)" fill="#fff"/>
  <path id="Path_5909" data-name="Path 5909" d="M1718.207,1617.1l.009.008Z" transform="translate(-1709.768 -1608.275)" fill="#fff"/>
  <path id="Path_5910" data-name="Path 5910" d="M1734.627,1625.159h0Z" transform="translate(-1725.585 -1616.038)" fill="#fff"/>
  <path id="Path_5911" data-name="Path 5911" d="M1716.629,1615.727l.01.008Z" transform="translate(-1708.247 -1606.952)" fill="#fff"/>
  <path id="Path_5912" data-name="Path 5912" d="M1684.285,1624.8l.025,0Z" transform="translate(-1677.089 -1615.693)" fill="#fff"/>
  <path id="Path_5913" data-name="Path 5913" d="M1714.375,1613.99l.008.006Z" transform="translate(-1706.076 -1605.279)" fill="#fff"/>
  <path id="Path_5914" data-name="Path 5914" d="M1685.982,1624.959l.026,0Z" transform="translate(-1678.724 -1615.846)" fill="#fff"/>
  <path id="Path_5915" data-name="Path 5915" d="M1715.064,1614.482l.007.005Z" transform="translate(-1706.74 -1605.754)" fill="#fff"/>
  <path id="Path_5916" data-name="Path 5916" d="M1715.924,1615.145l.006,0Z" transform="translate(-1707.568 -1606.391)" fill="#fff"/>
  <path id="Path_5917" data-name="Path 5917" d="M1685.224,1624.891l.019,0Z" transform="translate(-1677.994 -1615.78)" fill="#fff"/>
  <path id="Path_5918" data-name="Path 5918" d="M1724.17,1622.635l.015.013Z" transform="translate(-1715.512 -1613.607)" fill="#fff"/>
  <path id="Path_5919" data-name="Path 5919" d="M1681.881,1624.557l.02,0Z" transform="translate(-1674.773 -1615.458)" fill="#fff"/>
  <path id="Path_5920" data-name="Path 5920" d="M1724.594,1623.018c.027.024.052.045.073.061C1724.646,1623.063,1724.621,1623.042,1724.594,1623.018Z" transform="translate(-1715.92 -1613.976)" fill="#fff"/>
  <path id="Path_5921" data-name="Path 5921" d="M1733.129,1625.274h0Z" transform="translate(-1724.142 -1616.149)" fill="#fff"/>
  <path id="Path_5922" data-name="Path 5922" d="M1733.809,1625.219h0Z" transform="translate(-1724.797 -1616.096)" fill="#fff"/>
  <path id="Path_5923" data-name="Path 5923" d="M1680.979,1624.459l.025,0Z" transform="translate(-1673.904 -1615.364)" fill="#fff"/>
  <path id="Path_5924" data-name="Path 5924" d="M1682.609,1624.633l.025,0Z" transform="translate(-1675.475 -1615.532)" fill="#fff"/>
  <path id="Path_5925" data-name="Path 5925" d="M1723.164,1621.711l.014.013Z" transform="translate(-1714.543 -1612.717)" fill="#fff"/>
  <path id="Path_5926" data-name="Path 5926" d="M1720.473,1619.182l.1.092Z" transform="translate(-1711.95 -1610.28)" fill="#fff"/>
  <path id="Path_5927" data-name="Path 5927" d="M1719.789,1618.547l.014.013Z" transform="translate(-1711.292 -1609.669)" fill="#fff"/>
  <path id="Path_5928" data-name="Path 5928" d="M1723.686,1622.193l.014.013Z" transform="translate(-1715.045 -1613.182)" fill="#fff"/>
  <path id="Path_5929" data-name="Path 5929" d="M1713.752,1613.58l.006,0Z" transform="translate(-1705.476 -1604.884)" fill="#fff"/>
  <path id="Path_5930" data-name="Path 5930" d="M1719.059,1617.873l.012.011Z" transform="translate(-1710.588 -1609.02)" fill="#fff"/>
  <path id="Path_5931" data-name="Path 5931" d="M1707.146,1614.644l.024-.019Z" transform="translate(-1699.113 -1605.891)" fill="#fff"/>
  <path id="Path_5932" data-name="Path 5932" d="M1706.443,1615.3l.02-.016Z" transform="translate(-1698.435 -1606.521)" fill="#fff"/>
  <path id="Path_5933" data-name="Path 5933" d="M1698.9,1622.539l0,0Z" transform="translate(-1691.169 -1613.511)" fill="#fff"/>
  <path id="Path_5934" data-name="Path 5934" d="M1698.479,1622.993h0Z" transform="translate(-1690.762 -1613.951)" fill="#fff"/>
  <path id="Path_5935" data-name="Path 5935" d="M1708.01,1614.153l.017-.012Z" transform="translate(-1699.944 -1605.424)" fill="#fff"/>
  <path id="Path_5936" data-name="Path 5936" d="M1705.709,1615.964l.017-.015Z" transform="translate(-1697.728 -1607.167)" fill="#fff"/>
  <path id="Path_5937" data-name="Path 5937" d="M1704.012,1617.348l.022-.02Z" transform="translate(-1696.093 -1608.495)" fill="#fff"/>
  <path id="Path_5938" data-name="Path 5938" d="M1708.7,1613.7l.017-.011Z" transform="translate(-1700.605 -1604.989)" fill="#fff"/>
  <path id="Path_5939" data-name="Path 5939" d="M1703.283,1618.191l.015-.014Z" transform="translate(-1695.391 -1609.313)" fill="#fff"/>
  <path id="Path_5940" data-name="Path 5940" d="M1686.852,1625.037l.02,0Z" transform="translate(-1679.562 -1615.921)" fill="#fff"/>
  <path id="Path_5941" data-name="Path 5941" d="M1699.385,1622.069l.005,0Z" transform="translate(-1691.635 -1613.057)" fill="#fff"/>
  <path id="Path_5942" data-name="Path 5942" d="M1704.863,1616.6l.021-.019Z" transform="translate(-1696.913 -1607.78)" fill="#fff"/>
  <path id="Path_5943" data-name="Path 5943" d="M1711.973,1612.785h0Z" transform="translate(-1703.762 -1604.118)" fill="#fff"/>
  <path id="Path_5944" data-name="Path 5944" d="M1687.664,1625.107l.022,0Z" transform="translate(-1680.344 -1615.989)" fill="#fff"/>
  <path id="Path_5945" data-name="Path 5945" d="M1711.1,1612.734l.016,0Z" transform="translate(-1702.921 -1604.068)" fill="#fff"/>
  <path id="Path_5946" data-name="Path 5946" d="M1712.467,1612.934l.006,0Z" transform="translate(-1704.238 -1604.261)" fill="#fff"/>
  <path id="Path_5947" data-name="Path 5947" d="M1713.064,1613.2l0,0Z" transform="translate(-1704.814 -1604.515)" fill="#fff"/>
  <path id="Path_5948" data-name="Path 5948" d="M1710.605,1612.826l.013,0Z" transform="translate(-1702.445 -1604.154)" fill="#fff"/>
  <path id="Path_5949" data-name="Path 5949" d="M1710.008,1613.005l.016-.007Z" transform="translate(-1701.869 -1604.323)" fill="#fff"/>
  <path id="Path_5950" data-name="Path 5950" d="M1689.264,1625.236h0Z" transform="translate(-1681.885 -1616.113)" fill="#fff"/>
  <path id="Path_5951" data-name="Path 5951" d="M1709.32,1613.264l.021-.012Z" transform="translate(-1701.207 -1604.568)" fill="#fff"/>
  <path id="Path_5952" data-name="Path 5952" d="M1688.443,1625.172l.021,0Z" transform="translate(-1681.095 -1616.051)" fill="#fff"/>
  <path id="Path_5953" data-name="Path 5953" d="M1678.2,1624.133l.018,0Z" transform="translate(-1671.229 -1615.05)" fill="#fff"/>
  <path id="Path_5954" data-name="Path 5954" d="M1676.479,1623.9l.016,0Z" transform="translate(-1669.569 -1614.822)" fill="#fff"/>
  <path id="Path_5955" data-name="Path 5955" d="M1745.51,1624.032h0Z" transform="translate(-1736.069 -1614.952)" fill="#fff"/>
  <path id="Path_5956" data-name="Path 5956" d="M1746.043,1623.962h0Z" transform="translate(-1736.583 -1614.884)" fill="#fff"/>
  <path id="Path_5957" data-name="Path 5957" d="M1744.869,1624.119h0Z" transform="translate(-1735.452 -1615.037)" fill="#fff"/>
  <path id="Path_5958" data-name="Path 5958" d="M1676.07,1623.832l.012,0Z" transform="translate(-1669.176 -1614.76)" fill="#fff"/>
  <path id="Path_5959" data-name="Path 5959" d="M1743.541,1624.287h0Z" transform="translate(-1734.173 -1615.199)" fill="#fff"/>
  <path id="Path_5960" data-name="Path 5960" d="M1677.561,1624.051l.02,0Z" transform="translate(-1670.611 -1614.971)" fill="#fff"/>
  <path id="Path_5961" data-name="Path 5961" d="M1742.766,1624.36h0Z" transform="translate(-1733.426 -1615.268)" fill="#fff"/>
  <path id="Path_5962" data-name="Path 5962" d="M1742.094,1624.449h0Z" transform="translate(-1732.779 -1615.355)" fill="#fff"/>
  <path id="Path_5963" data-name="Path 5963" d="M1677.027,1623.975l.015,0Z" transform="translate(-1670.098 -1614.898)" fill="#fff"/>
  <path id="Path_5964" data-name="Path 5964" d="M1746.594,1623.885h0Z" transform="translate(-1737.113 -1614.811)" fill="#fff"/>
  <path id="Path_5965" data-name="Path 5965" d="M1675.1,1623.641l.007,0Z" transform="translate(-1668.242 -1614.576)" fill="#fff"/>
  <path id="Path_5966" data-name="Path 5966" d="M1748.089,1620.547a.479.479,0,0,1-.12.113h0A.479.479,0,0,0,1748.089,1620.547Z" transform="translate(-1738.438 -1611.596)" fill="#fff"/>
  <path id="Path_5967" data-name="Path 5967" d="M1699.91,1621.692Z" transform="translate(-1692.142 -1612.698)" fill="#fff"/>
  <path id="Path_5968" data-name="Path 5968" d="M1751.7,1617.78l.074-.085Z" transform="translate(-1742.033 -1608.848)" fill="#fff"/>
  <path id="Path_5969" data-name="Path 5969" d="M1747.426,1623.75h0Z" transform="translate(-1737.915 -1614.681)" fill="#fff"/>
  <path id="Path_5970" data-name="Path 5970" d="M1675.645,1623.758l.012,0Z" transform="translate(-1668.766 -1614.689)" fill="#fff"/>
  <path id="Path_5971" data-name="Path 5971" d="M1747,1623.817h0Z" transform="translate(-1737.507 -1614.745)" fill="#fff"/>
  <path id="Path_5972" data-name="Path 5972" d="M1747.7,1623.69h0Z" transform="translate(-1738.182 -1614.623)" fill="#fff"/>
  <path id="Path_5973" data-name="Path 5973" d="M1675.369,1623.7l.009,0Z" transform="translate(-1668.5 -1614.636)" fill="#fff"/>
  <path id="Path_5974" data-name="Path 5974" d="M1744.224,1624.194h0Z" transform="translate(-1734.831 -1615.108)" fill="#fff"/>
  <path id="Path_5975" data-name="Path 5975" d="M1678.846,1624.213l.022,0Z" transform="translate(-1671.849 -1615.127)" fill="#fff"/>
  <path id="Path_5976" data-name="Path 5976" d="M1740.463,1624.614h0Z" transform="translate(-1731.207 -1615.513)" fill="#fff"/>
  <path id="Path_5977" data-name="Path 5977" d="M1738.785,1624.78h0Z" transform="translate(-1729.591 -1615.673)" fill="#fff"/>
  <path id="Path_5978" data-name="Path 5978" d="M1739.543,1624.7h0Z" transform="translate(-1730.321 -1615.599)" fill="#fff"/>
  <path id="Path_5979" data-name="Path 5979" d="M1737.846,1624.866h0Z" transform="translate(-1728.686 -1615.756)" fill="#fff"/>
  <path id="Path_5980" data-name="Path 5980" d="M1679.529,1624.293l.021,0Z" transform="translate(-1672.508 -1615.204)" fill="#fff"/>
  <path id="Path_5981" data-name="Path 5981" d="M1680.3,1624.385l.022,0Z" transform="translate(-1673.255 -1615.293)" fill="#fff"/>
  <path id="Path_5982" data-name="Path 5982" d="M1735.408,1625.085h0Z" transform="translate(-1726.338 -1615.966)" fill="#fff"/>
  <path id="Path_5983" data-name="Path 5983" d="M1737.09,1624.936h0Z" transform="translate(-1727.958 -1615.823)" fill="#fff"/>
  <path id="Path_5984" data-name="Path 5984" d="M1736.219,1625.024h0Z" transform="translate(-1727.119 -1615.908)" fill="#fff"/>
  <path id="Path_5985" data-name="Path 5985" d="M1702.613,1618.91l.011-.01Z" transform="translate(-1694.746 -1610.01)" fill="#fff"/>
  <path id="Path_5986" data-name="Path 5986" d="M1741.191,1624.532h0Z" transform="translate(-1731.909 -1615.434)" fill="#fff"/>
  <path id="Path_5987" data-name="Path 5987" d="M1684.975,1624.865h0Z" transform="translate(-1677.754 -1615.756)" fill="#fff"/>
  <path id="Path_5988" data-name="Path 5988" d="M1680.105,1624.359h0Z" transform="translate(-1673.063 -1615.268)" fill="#fff"/>
  <path id="Path_5989" data-name="Path 5989" d="M1675.3,1623.689h0Z" transform="translate(-1668.438 -1614.623)" fill="#fff"/>
  <path id="Path_5990" data-name="Path 5990" d="M1698.506,1622.648l.015-.013Z" transform="translate(-1690.789 -1613.607)" fill="#fff"/>
  <path id="Path_5991" data-name="Path 5991" d="M1677.436,1624.031h0Z" transform="translate(-1670.491 -1614.952)" fill="#fff"/>
  <path id="Path_5992" data-name="Path 5992" d="M1685.736,1624.936h0Z" transform="translate(-1678.487 -1615.823)" fill="#fff"/>
  <path id="Path_5993" data-name="Path 5993" d="M1699.525,1621.724l.014-.013Z" transform="translate(-1691.771 -1612.717)" fill="#fff"/>
  <path id="Path_5994" data-name="Path 5994" d="M1675.6,1623.75h0Z" transform="translate(-1668.724 -1614.681)" fill="#fff"/>
  <path id="Path_5995" data-name="Path 5995" d="M1669.348,1617.7l.074.085Z" transform="translate(-1662.7 -1608.848)" fill="#fff"/>
  <path id="Path_5996" data-name="Path 5996" d="M1668.262,1616.451l.04.046Z" transform="translate(-1661.653 -1607.65)" fill="#fff"/>
  <path id="Path_5997" data-name="Path 5997" d="M1699.014,1622.206l.014-.013Z" transform="translate(-1691.278 -1613.182)" fill="#fff"/>
  <path id="Path_5998" data-name="Path 5998" d="M1678.094,1624.119h0Z" transform="translate(-1671.125 -1615.037)" fill="#fff"/>
  <path id="Path_5999" data-name="Path 5999" d="M1681.65,1624.531h0Z" transform="translate(-1674.551 -1615.434)" fill="#fff"/>
  <path id="Path_6000" data-name="Path 6000" d="M1675.975,1623.816h0Z" transform="translate(-1669.084 -1614.745)" fill="#fff"/>
  <path id="Path_6001" data-name="Path 6001" d="M1676.394,1623.885h0Z" transform="translate(-1669.488 -1614.811)" fill="#fff"/>
  <path id="Path_6002" data-name="Path 6002" d="M1688.271,1625.158h0Z" transform="translate(-1680.93 -1616.038)" fill="#fff"/>
  <path id="Path_6003" data-name="Path 6003" d="M1683.3,1624.7h0Z" transform="translate(-1676.137 -1615.599)" fill="#fff"/>
  <path id="Path_6004" data-name="Path 6004" d="M1696.482,1623.078c.021-.016.046-.036.073-.061C1696.528,1623.042,1696.5,1623.063,1696.482,1623.078Z" transform="translate(-1688.839 -1613.976)" fill="#fff"/>
  <path id="Path_6005" data-name="Path 6005" d="M1686.683,1625.024h0Z" transform="translate(-1679.4 -1615.908)" fill="#fff"/>
  <path id="Path_6006" data-name="Path 6006" d="M1687.4,1625.084h0Z" transform="translate(-1680.092 -1615.966)" fill="#fff"/>
  <path id="Path_6007" data-name="Path 6007" d="M1678.686,1624.193h0Z" transform="translate(-1671.695 -1615.108)" fill="#fff"/>
  <path id="Path_6008" data-name="Path 6008" d="M1680.9,1624.449h0Z" transform="translate(-1673.832 -1615.355)" fill="#fff"/>
  <path id="Path_6009" data-name="Path 6009" d="M1689.74,1625.273h0Z" transform="translate(-1682.344 -1616.149)" fill="#fff"/>
  <path id="Path_6010" data-name="Path 6010" d="M1682.418,1624.613h0Z" transform="translate(-1675.291 -1615.513)" fill="#fff"/>
  <path id="Path_6011" data-name="Path 6011" d="M1679.457,1624.287h0Z" transform="translate(-1672.438 -1615.199)" fill="#fff"/>
  <path id="Path_6012" data-name="Path 6012" d="M1684.061,1624.779h0Z" transform="translate(-1676.873 -1615.673)" fill="#fff"/>
  <path id="Path_6013" data-name="Path 6013" d="M1689.025,1625.219h0Z" transform="translate(-1681.656 -1616.096)" fill="#fff"/>
  <path id="Path_6014" data-name="Path 6014" d="M1676.92,1623.961h0Z" transform="translate(-1669.994 -1614.884)" fill="#fff"/>
  <path id="Path_6015" data-name="Path 6015" d="M1699.93,1619.264l.1-.092Z" transform="translate(-1692.16 -1610.271)" fill="#fff"/>
  <path id="Path_6016" data-name="Path 6016" d="M1738.1,1624.8l.025,0Z" transform="translate(-1728.927 -1615.693)" fill="#fff"/>
  <path id="Path_6017" data-name="Path 6017" d="M1724.564,1622.992h0Z" transform="translate(-1715.892 -1613.951)" fill="#fff"/>
  <path id="Path_6018" data-name="Path 6018" d="M1740.652,1624.559l.02,0Z" transform="translate(-1731.39 -1615.458)" fill="#fff"/>
  <path id="Path_6019" data-name="Path 6019" d="M1739.775,1624.635l.025,0Z" transform="translate(-1730.545 -1615.532)" fill="#fff"/>
  <path id="Path_6020" data-name="Path 6020" d="M1742.17,1624.387l.022,0Z" transform="translate(-1732.852 -1615.293)" fill="#fff"/>
  <path id="Path_6021" data-name="Path 6021" d="M1741.42,1624.462l.025,0Z" transform="translate(-1732.129 -1615.364)" fill="#fff"/>
  <path id="Path_6022" data-name="Path 6022" d="M1734.8,1625.109l.022,0Z" transform="translate(-1725.753 -1615.989)" fill="#fff"/>
  <path id="Path_6023" data-name="Path 6023" d="M1742.967,1624.3l.021,0Z" transform="translate(-1733.62 -1615.204)" fill="#fff"/>
  <path id="Path_6024" data-name="Path 6024" d="M1734.047,1625.174l.021,0Z" transform="translate(-1725.027 -1616.051)" fill="#fff"/>
  <path id="Path_6025" data-name="Path 6025" d="M1733.332,1625.238h0Z" transform="translate(-1724.338 -1616.113)" fill="#fff"/>
  <path id="Path_6026" data-name="Path 6026" d="M1737.336,1624.892l.019,0Z" transform="translate(-1728.195 -1615.78)" fill="#fff"/>
  <path id="Path_6027" data-name="Path 6027" d="M1735.67,1625.039l.02,0Z" transform="translate(-1726.59 -1615.921)" fill="#fff"/>
  <path id="Path_6028" data-name="Path 6028" d="M1736.389,1624.961l.026,0Z" transform="translate(-1727.283 -1615.846)" fill="#fff"/>
  <path id="Path_6029" data-name="Path 6029" d="M1739.01,1624.727l.02,0Z" transform="translate(-1729.808 -1615.62)" fill="#fff"/>
  <path id="Path_6030" data-name="Path 6030" d="M1747.1,1623.76l.012,0Z" transform="translate(-1737.599 -1614.689)" fill="#fff"/>
  <path id="Path_6031" data-name="Path 6031" d="M1747.471,1623.7l.009,0Z" transform="translate(-1737.958 -1614.636)" fill="#fff"/>
  <path id="Path_6032" data-name="Path 6032" d="M1747.766,1623.642l.007,0Z" transform="translate(-1738.242 -1614.576)" fill="#fff"/>
  <path id="Path_6033" data-name="Path 6033" d="M1671.952,1620.66h0a.479.479,0,0,1-.12-.113A.479.479,0,0,0,1671.952,1620.66Z" transform="translate(-1665.093 -1611.596)" fill="#fff"/>
  <path id="Path_6034" data-name="Path 6034" d="M1723.145,1621.692h0Z" transform="translate(-1714.524 -1612.698)" fill="#fff"/>
  <path id="Path_6035" data-name="Path 6035" d="M1746.15,1623.9l.016,0Z" transform="translate(-1736.686 -1614.822)" fill="#fff"/>
  <path id="Path_6036" data-name="Path 6036" d="M1744.977,1624.053l.02,0Z" transform="translate(-1735.556 -1614.971)" fill="#fff"/>
  <path id="Path_6037" data-name="Path 6037" d="M1746.676,1623.834l.012,0Z" transform="translate(-1737.192 -1614.76)" fill="#fff"/>
  <path id="Path_6038" data-name="Path 6038" d="M1744.387,1624.135l.018,0Z" transform="translate(-1734.987 -1615.05)" fill="#fff"/>
  <path id="Path_6039" data-name="Path 6039" d="M1745.637,1623.977l.015,0Z" transform="translate(-1736.192 -1614.898)" fill="#fff"/>
  <path id="Path_6040" data-name="Path 6040" d="M1743.613,1624.215l.022,0Z" transform="translate(-1734.242 -1615.127)" fill="#fff"/>
  <path id="Path_6041" data-name="Path 6041" d="M1708.479,1614l.008-.006Z" transform="translate(-1700.396 -1605.279)" fill="#fff"/>
  <path id="Path_6042" data-name="Path 6042" d="M1709.9,1613.2l0,0Z" transform="translate(-1701.762 -1604.515)" fill="#fff"/>
  <path id="Path_6043" data-name="Path 6043" d="M1702.9,1618.56l.014-.013Z" transform="translate(-1695.026 -1609.669)" fill="#fff"/>
  <path id="Path_6044" data-name="Path 6044" d="M1709.146,1613.584l.006,0Z" transform="translate(-1701.039 -1604.884)" fill="#fff"/>
  <path id="Path_6045" data-name="Path 6045" d="M1710.439,1612.936l.006,0Z" transform="translate(-1702.285 -1604.261)" fill="#fff"/>
  <path id="Path_6046" data-name="Path 6046" d="M1711.535,1612.732l.016,0Z" transform="translate(-1703.34 -1604.068)" fill="#fff"/>
  <path id="Path_6047" data-name="Path 6047" d="M1710.957,1612.786h0Z" transform="translate(-1702.783 -1604.118)" fill="#fff"/>
  <path id="Path_6048" data-name="Path 6048" d="M1712.117,1612.822l.013,0Z" transform="translate(-1703.901 -1604.154)" fill="#fff"/>
  <path id="Path_6049" data-name="Path 6049" d="M1704.609,1617.108l.009-.008Z" transform="translate(-1696.668 -1608.275)" fill="#fff"/>
  <path id="Path_6050" data-name="Path 6050" d="M1703.68,1617.884l.012-.011Z" transform="translate(-1695.773 -1609.02)" fill="#fff"/>
  <path id="Path_6051" data-name="Path 6051" d="M1705.443,1616.364l.01-.008Z" transform="translate(-1697.472 -1607.558)" fill="#fff"/>
  <path id="Path_6052" data-name="Path 6052" d="M1706.984,1615.149l.006,0Z" transform="translate(-1698.956 -1606.391)" fill="#fff"/>
  <path id="Path_6053" data-name="Path 6053" d="M1706.18,1615.735l.01-.008Z" transform="translate(-1698.181 -1606.952)" fill="#fff"/>
  <path id="Path_6054" data-name="Path 6054" d="M1707.814,1614.488l.007-.005Z" transform="translate(-1699.756 -1605.754)" fill="#fff"/>
  <path id="Path_6055" data-name="Path 6055" d="M1724.058,1622.535l0,0Z" transform="translate(-1715.404 -1613.511)" fill="#fff"/>
  <path id="Path_6056" data-name="Path 6056" d="M1716.891,1615.949l.017.015Z" transform="translate(-1708.5 -1607.167)" fill="#fff"/>
  <path id="Path_6057" data-name="Path 6057" d="M1718.461,1617.328l.022.02Z" transform="translate(-1710.012 -1608.495)" fill="#fff"/>
  <path id="Path_6058" data-name="Path 6058" d="M1717.629,1616.586l.021.019Z" transform="translate(-1709.211 -1607.78)" fill="#fff"/>
  <path id="Path_6059" data-name="Path 6059" d="M1719.39,1618.178l.015.014Z" transform="translate(-1710.907 -1609.313)" fill="#fff"/>
  <path id="Path_6060" data-name="Path 6060" d="M1720.164,1618.895l.011.011Z" transform="translate(-1711.653 -1610.004)" fill="#fff"/>
  <path id="Path_6061" data-name="Path 6061" d="M1712.631,1613l.016.007Z" transform="translate(-1704.396 -1604.323)" fill="#fff"/>
  <path id="Path_6062" data-name="Path 6062" d="M1723.545,1622.064l.005,0Z" transform="translate(-1714.91 -1613.057)" fill="#fff"/>
  <path id="Path_6063" data-name="Path 6063" d="M1716.086,1615.279l.02.016Z" transform="translate(-1707.724 -1606.521)" fill="#fff"/>
  <path id="Path_6064" data-name="Path 6064" d="M1713.174,1613.252l.021.012Z" transform="translate(-1704.919 -1604.568)" fill="#fff"/>
  <path id="Path_6065" data-name="Path 6065" d="M1713.924,1613.689l.017.011Z" transform="translate(-1705.642 -1604.989)" fill="#fff"/>
  <path id="Path_6066" data-name="Path 6066" d="M1715.258,1614.625l.024.019Z" transform="translate(-1706.927 -1605.891)" fill="#fff"/>
  <path id="Path_6067" data-name="Path 6067" d="M1714.594,1614.141l.017.012Z" transform="translate(-1706.287 -1605.424)" fill="#fff"/>
  <path id="Path_6068" data-name="Path 6068" d="M1732.69,1638.415l.085-.244.244-.157V1638c0-.012,0-.025,0-.037l-.235.164.058-.166.186-.081,0-.044-.177.086.05-.143-.048.025-.044.138-.189.092.052-.141-.045.021-.047.139-.264.129v.006l.257-.112-.086.254-.228.159v.006l.222-.143-.106.311-.188.155,0,.007.183-.141-.131.387h0l.149-.4.256-.2-.11.348.008-.01.124-.355.306-.235c0-.017.009-.036.014-.057Zm-.069-.351.187-.082-.055.174-.223.155Zm.044.372-.26.213.116-.313.221-.142Z" transform="translate(-1723.241 -1628.2)" fill="#fff"/>
  <path id="Path_6069" data-name="Path 6069" d="M1667.9,1638.165c0,.021.009.041.013.057l.306.235.124.355.008.01-.11-.348.256.2.149.4h0l-.131-.387.183.141,0-.007-.188-.155-.106-.311.222.143v-.006l-.228-.159-.086-.254.257.112v-.006l-.264-.129-.047-.139-.045-.021.052.141-.189-.092-.044-.138-.048-.025.05.143-.177-.086c0,.015,0,.03,0,.044l.186.081.058.166-.235-.164c0,.012,0,.025,0,.037v.009l.244.157.085.244Zm.465.146-.223-.155-.055-.174.187.082Zm-.212-.118.221.142.116.313-.26-.213Z" transform="translate(-1661.26 -1628.2)" fill="#fff"/>
  <path id="Path_6070" data-name="Path 6070" d="M1663.436,1608.8l-.074.085-.017.019a.477.477,0,0,1-.12.113h0l-.007,0h0l-.009,0h0l-.012,0h0l-.012,0h0l-.016,0h0l-.015,0h0l-.02,0h0l-.018,0h-.006l-.022,0h0l-.021,0h-.007l-.022,0h0l-.025,0h-.008l-.02,0h-.007l-.025,0h-.009l-.019,0h-.008l-.025,0h-.009l-.019,0h-.009l-.026,0h-.006l-.02,0h-.01l-.022,0h-.006l-.021,0h-.034a.1.1,0,0,0-.106.124.53.53,0,0,0-.134-.147h0c-.021-.016-.046-.036-.073-.061h0l-.015-.013,0,0-.014-.012-.005,0-.014-.013h0l-.1-.092-.011-.011-.014-.013-.015-.014-.012-.011-.022-.02-.009-.008-.021-.019-.01-.009-.017-.015-.01-.008-.02-.016-.006,0-.025-.019-.007-.005-.017-.013-.008-.005-.017-.011-.006,0-.021-.012,0,0-.016-.007-.006,0-.013,0h-.005l-.016,0-.016,0h-.005l-.013,0-.006,0-.016.007,0,0-.021.012-.006,0-.016.011-.008.005-.017.013-.007.005-.024.019-.006,0-.02.016-.01.008-.017.015-.01.009-.021.019-.009.008-.022.02-.012.011-.015.013-.014.013-.011.01-.1.092h0l-.014.013-.005,0-.014.012,0,0-.015.013h0c-.027.024-.052.045-.073.061h0a.532.532,0,0,0-.134.147.1.1,0,0,0-.106-.124h-.034l-.021,0h-.006l-.022,0H1661l-.02,0h-.006l-.026,0h-.009l-.019,0h-.009l-.025,0h-.008l-.02,0h-.009l-.025,0h-.007l-.02,0h-.008l-.025,0h0l-.022,0h-.007l-.021,0h0l-.022,0h-.006l-.018,0h0l-.02,0h0l-.015,0h0l-.016,0h0l-.012,0h0l-.012,0h0l-.009,0h0l-.007,0h0a.477.477,0,0,1-.12-.113l-.017-.019-.074-.085-.04-.046a1.716,1.716,0,0,0-.3-.293,1.88,1.88,0,0,1,.255.839l0,.013c.013.07.022.149.094.189a3.661,3.661,0,0,0,.587.268c.046.008.066-.146.119-.238a1.474,1.474,0,0,1,.5-.269c.1-.037.335,0,.335.173,0-.176.232-.21.335-.173a1.474,1.474,0,0,1,.5.269c.053.093.073.247.119.238a3.656,3.656,0,0,0,.587-.268c.072-.04.081-.12.094-.189l0-.013a1.882,1.882,0,0,1,.255-.839A1.982,1.982,0,0,0,1663.436,1608.8Z" transform="translate(-1653.695 -1599.955)" fill="#fff"/>
</svg>
