<svg xmlns="http://www.w3.org/2000/svg" width="10.15" height="11.501" viewBox="0 0 10.15 11.501">
  <g id="Group_7504" data-name="Group 7504" transform="translate(0.163 0.125)">
    <path id="Path_9294" data-name="Path 9294" d="M384.858,163.734l.515-1.922h-.442a.636.636,0,0,0-.615.472l-.389,1.451h-.7l.515-1.922H383.3a.635.635,0,0,0-.615.472l-.389,1.451h-.432a2.86,2.86,0,0,0-2.762,2.119l-1.416,5.285h2.626l-.515,1.922h.442a.637.637,0,0,0,.615-.472l.389-1.451h.7l-.515,1.922h.442a.636.636,0,0,0,.615-.472l.389-1.451h.461a2.86,2.86,0,0,0,2.762-2.119l1.416-5.285Z" transform="translate(-377.69 -161.812)" fill="none" stroke="#64f9a0" stroke-miterlimit="10" stroke-width="0.25"/>
    <path id="Path_13674" data-name="Path 13674" d="M383.969,171.867h-4.455l1.073-3.971a2.064,2.064,0,0,1,1.995-1.53h.135l-1.1,4.052h.5l3.816.015a2.064,2.064,0,0,1-1.962,1.434Z" transform="translate(-378.363 -163.492)" fill="#64f9a0"/>
    <path id="Path_13675" data-name="Path 13675" d="M389.131,169.953H387.85l-.262.977h.825l.079-.3h-.481l.1-.382h.934l-.284,1.059h-1.731l.312-1.164.155-.576h1.732Z" transform="translate(-381.137 -164.675)" fill="#64f9a0"/>
    <path id="Path_13676" data-name="Path 13676" d="M389.3,167.743l.08-.3h-.487l.1-.387h.946l-.288,1.073H387.9l.316-1.179a.787.787,0,0,1,.76-.584h1.15l-.1.387h-1.013a.367.367,0,0,0-.355.273l-.189.717Z" transform="translate(-381.458 -163.493)" fill="#64f9a0"/>
  </g>
</svg>
