<svg xmlns="http://www.w3.org/2000/svg" xmlns:xlink="http://www.w3.org/1999/xlink" width="26.165" height="40.001" viewBox="0 0 26.165 40.001">
  <defs>
    <linearGradient id="linear-gradient" x1="0.744" y1="0.968" x2="0.568" y2="0.146" gradientUnits="objectBoundingBox">
      <stop offset="0" stop-color="#ea5d0d"/>
      <stop offset="1" stop-color="#ffd110"/>
    </linearGradient>
  </defs>
  <path id="Path_13713" data-name="Path 13713" d="M439.525,81.7c.113-.451-3.37.67-4.376,2.194a.041.041,0,0,1-.074-.031c.367-1.659,1.872-10.477-6.69-14.037a.041.041,0,0,0-.054.054,9.091,9.091,0,0,1,.27,1.752,14.783,14.783,0,0,1-.107,4.676c-.59,3.015-2.789,5.5-4.636,7.85-2.689,3.424-5.218,7.14-6.153,11.392-1.312,5.968,1.311,11.029,6.261,14.266a.042.042,0,0,0,.058-.057,9.683,9.683,0,0,1-.425-9.617.042.042,0,0,1,.071-.005c.274.384,1.95,2.668,3.388,3.025a.041.041,0,0,0,.04-.066c-.6-.753-.872-5.375-.882-5.853-.081-3.811,1.212-7.582,4.584-9.654a.041.041,0,0,1,.062.044,8.886,8.886,0,0,0,.352,5.523c.774,1.706,2.25,2.967,3.521,4.343a14.017,14.017,0,0,1,2.847,4.325,8.119,8.119,0,0,1-.955,7.818.041.041,0,0,0,.041.065c4.268-.963,6.838-7.076,6.864-10.986a19.578,19.578,0,0,0-2.43-8.582C439.817,87.5,438.777,84.686,439.525,81.7Z" transform="translate(-417.369 -69.825)" fill="url(#linear-gradient)"/>
</svg>
