<svg xmlns="http://www.w3.org/2000/svg" width="17.225" height="15.769" viewBox="0 0 17.225 15.769">
  <g id="Group_8021" data-name="Group 8021" transform="translate(20047.264 -8760.75)">
    <g id="Group_7593" data-name="Group 7593" transform="translate(-20047.014 8761)">
      <rect id="Rectangle_4856" data-name="Rectangle 4856" width="3.054" height="15.269" transform="translate(0 0)" fill="none" stroke="#171619" stroke-miterlimit="10" stroke-width="0.5"/>
      <rect id="Rectangle_4857" data-name="Rectangle 4857" width="3.054" height="15.269" transform="translate(0 0)" fill="none" stroke="#171619" stroke-miterlimit="10" stroke-width="0.5"/>
      <rect id="Rectangle_4858" data-name="Rectangle 4858" width="10.617" height="15.269" transform="translate(3.054 0)" fill="none" stroke="#171619" stroke-miterlimit="10" stroke-width="0.5"/>
      <rect id="Rectangle_4859" data-name="Rectangle 4859" width="3.054" height="3.054" transform="translate(0 12.215)" fill="none" stroke="#171619" stroke-miterlimit="10" stroke-width="0.5"/>
      <rect id="Rectangle_4860" data-name="Rectangle 4860" width="3.054" height="3.054" transform="translate(0 9.161)" fill="none" stroke="#171619" stroke-miterlimit="10" stroke-width="0.5"/>
      <rect id="Rectangle_4861" data-name="Rectangle 4861" width="3.054" height="3.054" transform="translate(0 6.107)" fill="none" stroke="#171619" stroke-miterlimit="10" stroke-width="0.5"/>
      <rect id="Rectangle_4862" data-name="Rectangle 4862" width="3.054" height="3.054" transform="translate(0 3.054)" fill="none" stroke="#171619" stroke-miterlimit="10" stroke-width="0.5"/>
      <rect id="Rectangle_4863" data-name="Rectangle 4863" width="3.054" height="3.054" transform="translate(0 0)" fill="none" stroke="#171619" stroke-miterlimit="10" stroke-width="0.5"/>
      <rect id="Rectangle_4864" data-name="Rectangle 4864" width="3.054" height="15.269" transform="translate(13.671 0)" fill="none" stroke="#171619" stroke-miterlimit="10" stroke-width="0.5"/>
      <rect id="Rectangle_4865" data-name="Rectangle 4865" width="3.054" height="15.269" transform="translate(13.671 0)" fill="none" stroke="#171619" stroke-miterlimit="10" stroke-width="0.5"/>
      <rect id="Rectangle_4866" data-name="Rectangle 4866" width="3.054" height="3.054" transform="translate(13.671 12.215)" fill="none" stroke="#171619" stroke-miterlimit="10" stroke-width="0.5"/>
      <rect id="Rectangle_4867" data-name="Rectangle 4867" width="3.054" height="3.054" transform="translate(13.671 9.161)" fill="none" stroke="#171619" stroke-miterlimit="10" stroke-width="0.5"/>
      <rect id="Rectangle_4868" data-name="Rectangle 4868" width="3.054" height="3.054" transform="translate(13.671 6.107)" fill="none" stroke="#171619" stroke-miterlimit="10" stroke-width="0.5"/>
      <rect id="Rectangle_4869" data-name="Rectangle 4869" width="3.054" height="3.054" transform="translate(13.671 3.054)" fill="none" stroke="#171619" stroke-miterlimit="10" stroke-width="0.5"/>
      <rect id="Rectangle_4870" data-name="Rectangle 4870" width="3.054" height="3.054" transform="translate(13.671 0)" fill="none" stroke="#171619" stroke-miterlimit="10" stroke-width="0.5"/>
      <path id="Path_13722" data-name="Path 13722" d="M-619.082-165.7l-3.63-2.1a.092.092,0,0,0-.139.08v4.192a.092.092,0,0,0,.139.08l3.63-2.1A.092.092,0,0,0-619.082-165.7Z" transform="translate(629.785 173.258)" fill="none" stroke="#171619" stroke-miterlimit="10" stroke-width="0.5"/>
    </g>
  </g>
</svg>
