<svg id="Group_7567" data-name="Group 7567" xmlns="http://www.w3.org/2000/svg" xmlns:xlink="http://www.w3.org/1999/xlink" width="19.441" height="19.441" viewBox="0 0 19.441 19.441">
  <defs>
    <linearGradient id="linear-gradient" y1="-1.017" x2="0.5" y2="1" gradientUnits="objectBoundingBox">
      <stop offset="0" stop-color="#60f5f9"/>
      <stop offset="1" stop-color="#64f9a0"/>
    </linearGradient>
  </defs>
  <path id="Path_9303" data-name="Path 9303" d="M103.939,117.038l1.427-5.27h-.175a2.685,2.685,0,0,0-2.594,1.99l-1.4,5.164h5.794a2.683,2.683,0,0,0,2.554-1.865l-4.963-.02Z" transform="translate(-96.367 -105.624)" fill="url(#linear-gradient)"/>
  <path id="Path_9304" data-name="Path 9304" d="M151.351,133.7l-.406,1.514H153.2l.369-1.378h-1.214l-.133.5h.625l-.1.385h-1.074l.34-1.27h1.663l.133-.5h-2.252Z" transform="translate(-139.938 -124.181)" fill="url(#linear-gradient)"/>
  <path id="Path_9305" data-name="Path 9305" d="M158.085,112.27H159.4l.135-.5h-1.5a1.024,1.024,0,0,0-.989.759l-.411,1.534h2.281l.374-1.4h-1.23l-.135.5h.633l-.1.389h-1.087l.25-.932A.478.478,0,0,1,158.085,112.27Z" transform="translate(-144.928 -105.623)" fill="url(#linear-gradient)"/>
  <path id="Path_9306" data-name="Path 9306" d="M77.571,68.642a8.93,8.93,0,1,0,8.93,8.93A8.94,8.94,0,0,0,77.571,68.642Zm4.55,10.988a3.719,3.719,0,0,1-3.592,2.756h-.6l-.505,1.886a.828.828,0,0,1-.8.613h-.577l.67-2.5h-.909L75.3,84.273a.828.828,0,0,1-.8.613h-.577l.67-2.5H71.179l1.842-6.873a3.718,3.718,0,0,1,3.592-2.756h.562l.505-1.886a.828.828,0,0,1,.8-.614h.577l-.67,2.5H79.3l.505-1.886a.828.828,0,0,1,.8-.614h.577l-.67,2.5h3.453Z" transform="translate(-67.85 -67.851)" fill="url(#linear-gradient)"/>
  <path id="Path_9307" data-name="Path 9307" d="M71.991,62.271a9.721,9.721,0,1,0,9.721,9.721A9.721,9.721,0,0,0,71.991,62.271Zm0,18.9a9.178,9.178,0,1,1,9.178-9.178A9.189,9.189,0,0,1,71.991,81.17Z" transform="translate(-62.27 -62.271)" fill="url(#linear-gradient)"/>
</svg>
