<svg xmlns="http://www.w3.org/2000/svg" width="13.736" height="13.737" viewBox="0 0 13.736 13.737">
  <path id="Path_13685" data-name="Path 13685" d="M-2164.548,822.678c.009-.146.022-.291.022-.44s-.012-.293-.022-.439l-1.7-.425c-.116-.431-.142-.53-.257-.961l1.259-1.219a6.985,6.985,0,0,0-.434-.762l-1.69.483-.7-.7.483-1.691a6.887,6.887,0,0,0-.762-.434l-1.22,1.26-.96-.257-.425-1.7c-.147-.009-.291-.023-.44-.023s-.293.014-.439.023l-.425,1.7-.96.257-1.219-1.26a6.865,6.865,0,0,0-.762.434l.483,1.691c-.316.315-.388.388-.7.7l-1.692-.483a6.7,6.7,0,0,0-.433.762l1.26,1.219-.257.961-1.7.425c-.009.146-.023.291-.023.439s.013.294.023.44l1.7.425.257.96-1.26,1.22a6.721,6.721,0,0,0,.433.762l1.692-.483c.315.315.386.388.7.7l-.483,1.691a6.856,6.856,0,0,0,.762.434l1.219-1.26.96.257.425,1.7c.146.009.291.023.439.023s.293-.014.44-.023l.425-1.7.96-.257,1.22,1.26a6.878,6.878,0,0,0,.762-.434l-.483-1.691.7-.7,1.69.483a7,7,0,0,0,.434-.762l-1.259-1.22c.114-.43.141-.529.257-.96Zm-6.846,2.685a3.125,3.125,0,0,1-3.125-3.125,3.125,3.125,0,0,1,3.125-3.124,3.124,3.124,0,0,1,3.124,3.124A3.125,3.125,0,0,1-2171.395,825.364Z" transform="translate(2178.263 -815.37)" fill="#fff"/>
</svg>
