<svg xmlns="http://www.w3.org/2000/svg" width="25.615" height="24.437" viewBox="0 0 25.615 24.437">
  <path id="Path_13711" data-name="Path 13711" d="M-2597.979,2.566a1.614,1.614,0,0,1,1.241-.259,1.322,1.322,0,0,0,.937-.2c1.637-1.285,3.243-2.611,4.856-3.928.249-.2.487-.427.87-.766l-7.845-.424a1.458,1.458,0,0,0-.15.227,1.256,1.256,0,0,1-1.4.888,1.245,1.245,0,0,1-.155-.04,2.056,2.056,0,0,1-.877-.614c-.038-.046-.072-.092-.1-.139a1.283,1.283,0,0,1,.292-1.634.862.862,0,0,0,.1-.723c-.511-1.423-1.059-2.833-1.6-4.243-.31-.8-.638-1.6-1.029-2.573l-.006-.015c-.979,2.535-1.889,4.862-2.758,7.2-.068.184.1.5.238.707a1.5,1.5,0,0,1,.169,1.357,1.349,1.349,0,0,1-.444.6,1.389,1.389,0,0,1-.773.282,1.415,1.415,0,0,1-1.235-.6,5.548,5.548,0,0,1-.335-.641l-7.693.428h0C-2613.8-1-2612.078.39-2610.372,1.8a1.49,1.49,0,0,0,1.383.441,1.153,1.153,0,0,1,1.16.419,1.61,1.61,0,0,1,.3.58,1.387,1.387,0,0,1,.036.576,1.522,1.522,0,0,1-.769,1.063,1.581,1.581,0,0,0-.667.809c-.575,2-1.09,4.023-1.635,6.035a5.81,5.81,0,0,1-.283.691c.016.048.032.1.047.143,0,0,0,0,0,.006,2.056-1.323,4.12-2.636,6.16-3.984a1.035,1.035,0,0,0,.29-.694,1.593,1.593,0,0,1,.607-1.142,1.306,1.306,0,0,1,.722-.245,1.387,1.387,0,0,1,.873.25,1.611,1.611,0,0,1,.633,1.042,1.29,1.29,0,0,0,.471.774c1.863,1.245,3.753,2.454,5.635,3.669a3.211,3.211,0,0,0,.467.194h0c-.606-2.273-1.191-4.432-1.75-6.6a.987.987,0,0,0-.829-.85,1.287,1.287,0,0,1-.951-.888,1.4,1.4,0,0,1,0-.819A1.339,1.339,0,0,1-2597.979,2.566Z" transform="translate(2615.69 11.876)" fill="#171619"/>
</svg>
