<svg xmlns="http://www.w3.org/2000/svg" width="26.289" height="19.058" viewBox="0 0 26.289 19.058">
  <path id="Path_13874" data-name="Path 13874" d="M-2408-569.091a13.057,13.057,0,0,1-3.849,9.29.809.809,0,0,1-.575.237.808.808,0,0,1-.575-.237.818.818,0,0,1,0-1.15,11.437,11.437,0,0,0,3.374-8.14,11.44,11.44,0,0,0-3.374-8.145.816.816,0,0,1,0-1.149.818.818,0,0,1,1.15,0,13.061,13.061,0,0,1,3.845,9.293Zm-20.754,0a7.574,7.574,0,0,1,2.229-5.388v0h0a.809.809,0,0,0,0-1.142l-.006,0a.807.807,0,0,0-1.141,0,9.183,9.183,0,0,0-2.706,6.534,9.162,9.162,0,0,0,2.706,6.527.8.8,0,0,0,.572.24.817.817,0,0,0,.575-.24l0,0a.809.809,0,0,0,0-1.142A7.548,7.548,0,0,1-2428.755-569.091Zm-.532,8.139a11.414,11.414,0,0,1-3.374-8.139,11.424,11.424,0,0,1,3.374-8.145l0,0a.811.811,0,0,0,0-1.147.814.814,0,0,0-1.147,0,13.038,13.038,0,0,0-3.855,9.294,13.034,13.034,0,0,0,3.855,9.29.79.79,0,0,0,.572.237.809.809,0,0,0,.575-.237v0a.811.811,0,0,0,0-1.148Zm17.383-8.14a9.171,9.171,0,0,0-2.708-6.533l-.005-.005a.807.807,0,0,0-1.14.005l-.005,0a.807.807,0,0,0,.005,1.142,7.582,7.582,0,0,1,2.231,5.388,7.554,7.554,0,0,1-2.231,5.381l-.005.005a.806.806,0,0,0,.005,1.14.794.794,0,0,0,.571.24.811.811,0,0,0,.575-.24,9.143,9.143,0,0,0,2.708-6.527Zm-4.146,0a5.094,5.094,0,0,1-5.095,5.095,5.1,5.1,0,0,1-5.094-5.095,5.094,5.094,0,0,1,5.094-5.095A5.094,5.094,0,0,1-2416.051-569.093Zm-2.568,0-3.791-2.189v4.376Z" transform="translate(2434.289 578.622)" fill="#171619" opacity="0.978"/>
</svg>
