<svg id="Vo4s6s.tif" xmlns="http://www.w3.org/2000/svg" width="11.732" height="10.564" viewBox="0 0 11.732 10.564">
  <g id="Group_7507" data-name="Group 7507" transform="translate(0 0)">
    <path id="Path_13677" data-name="Path 13677" d="M-794.6,222.093a.934.934,0,0,1-.37-.233q-1.546-1.339-3.095-2.674a.192.192,0,0,0-.117-.035q-1.408,0-2.816,0a.542.542,0,0,1-.356-.106.481.481,0,0,1-.188-.392c0-.225,0-.449,0-.674,0-1.008,0-2.015,0-3.023a.5.5,0,0,1,.363-.5.739.739,0,0,1,.17-.019q1.44,0,2.88,0a.181.181,0,0,0,.129-.046q1.575-1.365,3.153-2.727a.489.489,0,0,1,.812.273.477.477,0,0,1,.008.1q0,4.778,0,9.556a.489.489,0,0,1-.371.491.183.183,0,0,0-.03.015Z" transform="translate(801.546 -211.529)" fill="#fff"/>
    <path id="Path_13679" data-name="Path 13679" d="M-763.009,220.594a5.352,5.352,0,0,0-1.023-3.119.5.5,0,0,1-.043-.6.49.49,0,0,1,.809-.016,6.241,6.241,0,0,1,.66,1.12,6.125,6.125,0,0,1,.537,1.941,6.309,6.309,0,0,1-1.194,4.469.488.488,0,0,1-.684.12.484.484,0,0,1-.111-.69,5.453,5.453,0,0,0,.871-1.821A5.622,5.622,0,0,0-763.009,220.594Z" transform="translate(773.765 -215.337)" fill="#fff"/>
    <path id="Path_13680" data-name="Path 13680" d="M-767.949,224.553a4.373,4.373,0,0,1-.7,2.44.488.488,0,0,1-.568.207.478.478,0,0,1-.335-.487.633.633,0,0,1,.092-.265,3.4,3.4,0,0,0,.481-1.245,3.3,3.3,0,0,0-.442-2.3.971.971,0,0,1-.119-.249.48.48,0,0,1,.284-.556.487.487,0,0,1,.6.176,4.214,4.214,0,0,1,.621,1.5c.023.112.044.225.056.338C-767.966,224.284-767.956,224.462-767.949,224.553Z" transform="translate(777.776 -219.351)" fill="#fff"/>
  </g>
</svg>
