<svg xmlns="http://www.w3.org/2000/svg" width="21.1" height="18.966" viewBox="0 0 21.1 18.966">
  <g id="Group_7875" data-name="Group 7875" transform="translate(2253.265 -792.598)" opacity="0.5">
    <path id="Path_9629" data-name="Path 9629" d="M-2233.077,806.21a.844.844,0,0,0-.843.843.844.844,0,0,0,.843.843.844.844,0,0,0,.843-.843A.844.844,0,0,0-2233.077,806.21Z" transform="translate(-4.881 -3.435)" fill="#fff"/>
    <path id="Path_9630" data-name="Path 9630" d="M-2233.88,804.318a2.225,2.225,0,0,0-2.222,2.223,2.224,2.224,0,0,0,2.222,2.222h6.046v-4.445Zm.253,3.848a1.593,1.593,0,0,1-1.591-1.591,1.593,1.593,0,0,1,1.591-1.59,1.592,1.592,0,0,1,1.591,1.59A1.593,1.593,0,0,1-2233.627,808.166Z" transform="translate(-4.331 -2.957)" fill="#fff"/>
    <path id="Path_9631" data-name="Path 9631" d="M-2231.572,793.067a.469.469,0,0,0-.563-.459l-11.284,2.318h11.847Z" transform="translate(-2.484 0)" fill="#fff"/>
    <path id="Path_9632" data-name="Path 9632" d="M-2238.21,801.651h6.045v-4.2a.738.738,0,0,0-.733-.737h-19.633a.738.738,0,0,0-.733.737v14.414a.738.738,0,0,0,.738.739h19.624a.738.738,0,0,0,.738-.739v-4.271h-6.045a2.973,2.973,0,0,1-2.97-2.97A2.974,2.974,0,0,1-2238.21,801.651Z" transform="translate(0 -1.038)" fill="#fff"/>
  </g>
</svg>
