<svg xmlns="http://www.w3.org/2000/svg" width="22.457" height="21.425" viewBox="0 0 22.457 21.425">
  <path id="Path_6584" data-name="Path 6584" d="M-2600.163.787a1.417,1.417,0,0,1,1.088-.227,1.161,1.161,0,0,0,.822-.175c1.435-1.127,2.843-2.29,4.256-3.444.22-.18.427-.375.764-.672l-6.878-.372a1.393,1.393,0,0,0-.132.2,1.1,1.1,0,0,1-1.229.779,1.1,1.1,0,0,1-.136-.035,1.8,1.8,0,0,1-.768-.538c-.033-.04-.064-.081-.092-.122a1.125,1.125,0,0,1,.256-1.432.753.753,0,0,0,.085-.634c-.448-1.248-.928-2.484-1.406-3.72-.272-.7-.56-1.4-.9-2.256l-.005-.013c-.858,2.223-1.656,4.262-2.418,6.316-.06.161.089.441.209.62a1.313,1.313,0,0,1,.148,1.19,1.183,1.183,0,0,1-.389.529,1.218,1.218,0,0,1-.679.248,1.24,1.24,0,0,1-1.082-.523,4.774,4.774,0,0,1-.293-.562l-6.745.375h0c1.656,1.346,3.167,2.561,4.662,3.795a1.305,1.305,0,0,0,1.213.386,1.01,1.01,0,0,1,1.017.367,1.4,1.4,0,0,1,.266.509,1.219,1.219,0,0,1,.033.505,1.338,1.338,0,0,1-.675.932,1.383,1.383,0,0,0-.584.71c-.5,1.757-.956,3.527-1.433,5.291a5.227,5.227,0,0,1-.248.606l.041.125a.02.02,0,0,1,0,.005c1.8-1.16,3.611-2.311,5.4-3.493a.912.912,0,0,0,.256-.609,1.389,1.389,0,0,1,.531-1,1.145,1.145,0,0,1,.632-.214,1.215,1.215,0,0,1,.765.219,1.413,1.413,0,0,1,.555.914,1.134,1.134,0,0,0,.412.679c1.634,1.092,3.289,2.151,4.941,3.217a2.821,2.821,0,0,0,.409.17h0c-.532-1.993-1.046-3.886-1.536-5.785a.864.864,0,0,0-.727-.745,1.129,1.129,0,0,1-.833-.778,1.235,1.235,0,0,1,0-.718A1.176,1.176,0,0,1-2600.163.787Z" transform="translate(2615.69 11.876)" fill="#fff"/>
</svg>
