<svg xmlns="http://www.w3.org/2000/svg" width="13.027" height="13.027" viewBox="0 0 13.027 13.027">
  <path id="Path_14419" data-name="Path 14419" d="M-334.064,915.045l-3.262-3.262a5.335,5.335,0,0,0,1.149-3.311,5.37,5.37,0,0,0-5.364-5.364,5.37,5.37,0,0,0-5.363,5.364,5.37,5.37,0,0,0,5.363,5.364,5.335,5.335,0,0,0,3.311-1.149l3.262,3.262a.636.636,0,0,0,.452.187.636.636,0,0,0,.452-.187A.638.638,0,0,0-334.064,915.045Zm-11.563-6.574a4.091,4.091,0,0,1,4.086-4.086,4.091,4.091,0,0,1,4.086,4.086,4.091,4.091,0,0,1-4.086,4.086A4.091,4.091,0,0,1-345.627,908.471Z" transform="translate(346.904 -903.108)" fill="#fff"/>
</svg>
