<svg xmlns="http://www.w3.org/2000/svg" width="14.017" height="12.905" viewBox="0 0 14.017 12.905">
  <g id="Group_7586" data-name="Group 7586" transform="translate(944.662 22.361)">
    <path id="Path_13613" data-name="Path 13613" d="M-935.124-10.755h0c0-.1,0-.207,0-.311a2.553,2.553,0,0,0-.355-1.361,2.514,2.514,0,0,0-3.348-.941,2.43,2.43,0,0,0-1.328,2.01c-.036.4-.014.811-.014,1.216a.257.257,0,0,0,.146.23,2.83,2.83,0,0,0,.355.169,4.9,4.9,0,0,0,1.411.267,8.2,8.2,0,0,0,1.915-.082,3.369,3.369,0,0,0,1-.313.352.352,0,0,0,.213-.355C-935.129-10.4-935.124-10.579-935.124-10.755Zm-5.607-.511c.024-.169.04-.328.071-.483a3.023,3.023,0,0,1,.917-1.641.1.1,0,0,0,.033-.116,2.523,2.523,0,0,0-.27-.62,2.442,2.442,0,0,0-1.976-1.217,2.43,2.43,0,0,0-2.142.931,2.367,2.367,0,0,0-.553,1.437c-.013.3-.006.6-.008.906,0,.346-.048.4.393.592a4.54,4.54,0,0,0,1.479.305,8.659,8.659,0,0,0,1.65-.034C-941-11.221-940.863-11.246-940.731-11.266Zm7.671.115,0,.023c.384-.037.769-.063,1.15-.115a3,3,0,0,0,1.088-.342.31.31,0,0,0,.172-.293c0-.327.009-.655,0-.982a2.868,2.868,0,0,0-.078-.6,2.513,2.513,0,0,0-2.715-1.88,2.53,2.53,0,0,0-2.149,1.814.106.106,0,0,0,.035.123,3.018,3.018,0,0,1,.981,2.067c0,.052.022.071.073.079A7.735,7.735,0,0,0-933.061-11.15Zm-7.388-6.151a1.687,1.687,0,0,0-1.674-1.69,1.69,1.69,0,0,0-1.689,1.667,1.682,1.682,0,0,0,1.679,1.7A1.677,1.677,0,0,0-940.449-17.3Zm8.966,0a1.684,1.684,0,0,0-1.672-1.689,1.69,1.69,0,0,0-1.69,1.665,1.689,1.689,0,0,0,1.678,1.7A1.684,1.684,0,0,0-931.483-17.3Zm-6.152-.007a1.676,1.676,0,0,0-1.69,1.611,1.682,1.682,0,0,0,1.622,1.755,1.687,1.687,0,0,0,1.737-1.624A1.682,1.682,0,0,0-937.636-17.308Zm-2.26-2.25a1.4,1.4,0,0,0,1.4-1.4,1.4,1.4,0,0,0-1.407-1.4,1.4,1.4,0,0,0-1.395,1.408A1.4,1.4,0,0,0-939.9-19.558Zm4.424-2.8a1.405,1.405,0,0,0-1.4,1.407,1.405,1.405,0,0,0,1.41,1.4,1.4,1.4,0,0,0,1.393-1.4A1.4,1.4,0,0,0-935.471-22.36Zm.894,3.31a1.931,1.931,0,0,0-2.767,1.2,2.216,2.216,0,0,1,1.631,1.1,2.222,2.222,0,0,1,.151,1.971,3.283,3.283,0,0,1,.98-.788A2.26,2.26,0,0,1-934.578-19.05Zm-6.166-.017a2.211,2.211,0,0,1,.853,1.741,2.216,2.216,0,0,1-.821,1.757c.128.083.252.155.366.239a3.756,3.756,0,0,1,.336.278c.1.094.192.2.3.319a2.218,2.218,0,0,1,.1-1.971,2.237,2.237,0,0,1,1.59-1.133A1.928,1.928,0,0,0-940.744-19.067Z" transform="translate(0 0)" fill="#fff"/>
    <path id="Path_13614" data-name="Path 13614" d="M-672.549,497.734c0,.176-.005.353,0,.529a.352.352,0,0,1-.213.355,3.367,3.367,0,0,1-1,.313,8.206,8.206,0,0,1-1.915.082,4.9,4.9,0,0,1-1.411-.267,2.822,2.822,0,0,1-.355-.169.258.258,0,0,1-.147-.23c0-.406-.022-.813.014-1.216a2.43,2.43,0,0,1,1.328-2.01,2.514,2.514,0,0,1,3.348.941,2.553,2.553,0,0,1,.355,1.361c0,.1,0,.207,0,.311Z" transform="translate(-262.575 -508.489)" fill="#fff"/>
    <path id="Path_13615" data-name="Path 13615" d="M-940.731,398.737c-.132.02-.269.045-.406.062a8.66,8.66,0,0,1-1.65.034,4.541,4.541,0,0,1-1.479-.305c-.441-.187-.4-.246-.393-.592,0-.3,0-.6.008-.906a2.367,2.367,0,0,1,.553-1.437,2.43,2.43,0,0,1,2.142-.931,2.442,2.442,0,0,1,1.976,1.217,2.523,2.523,0,0,1,.27.62.1.1,0,0,1-.033.116,3.023,3.023,0,0,0-.917,1.641C-940.692,398.41-940.707,398.569-940.731,398.737Z" transform="translate(0 -410.003)" fill="#fff"/>
    <path id="Path_13616" data-name="Path 13616" d="M-403.057,398.876a7.737,7.737,0,0,1-1.445-.1c-.051-.009-.069-.027-.073-.079a3.018,3.018,0,0,0-.981-2.067.106.106,0,0,1-.035-.123,2.531,2.531,0,0,1,2.149-1.814,2.513,2.513,0,0,1,2.715,1.88,2.866,2.866,0,0,1,.078.6c.012.327,0,.654,0,.982a.31.31,0,0,1-.172.293,3,3,0,0,1-1.088.342c-.381.052-.766.078-1.15.115Z" transform="translate(-530.003 -410.027)" fill="#fff"/>
    <path id="Path_13617" data-name="Path 13617" d="M-890.694,179.767a1.677,1.677,0,0,1-1.684,1.677,1.682,1.682,0,0,1-1.679-1.7,1.69,1.69,0,0,1,1.689-1.667A1.687,1.687,0,0,1-890.694,179.767Z" transform="translate(-49.755 -197.068)" fill="#fff"/>
    <path id="Path_13618" data-name="Path 13618" d="M-357.259,179.822a1.684,1.684,0,0,1-1.684,1.678,1.689,1.689,0,0,1-1.678-1.7,1.69,1.69,0,0,1,1.69-1.665A1.684,1.684,0,0,1-357.259,179.822Z" transform="translate(-574.224 -197.124)" fill="#fff"/>
    <path id="Path_13619" data-name="Path 13619" d="M-625.56,278.232a1.682,1.682,0,0,1,1.669,1.742,1.687,1.687,0,0,1-1.737,1.624,1.682,1.682,0,0,1-1.622-1.755A1.676,1.676,0,0,1-625.56,278.232Z" transform="translate(-312.075 -295.54)" fill="#fff"/>
    <path id="Path_13620" data-name="Path 13620" d="M-742.93-19.487a1.4,1.4,0,0,1-1.4-1.394,1.4,1.4,0,0,1,1.395-1.408,1.4,1.4,0,0,1,1.407,1.4A1.4,1.4,0,0,1-742.93-19.487Z" transform="translate(-196.965 -0.071)" fill="#fff"/>
    <path id="Path_13621" data-name="Path 13621" d="M-479.741-22.36a1.4,1.4,0,0,1,1.4,1.4,1.4,1.4,0,0,1-1.393,1.4,1.405,1.405,0,0,1-1.409-1.4A1.405,1.405,0,0,1-479.741-22.36Z" transform="translate(-455.73)" fill="#fff"/>
    <path id="Path_13622" data-name="Path 13622" d="M-506.544,161.31a2.26,2.26,0,0,0-.005,3.483,3.279,3.279,0,0,0-.98.788,2.222,2.222,0,0,0-.151-1.971,2.216,2.216,0,0,0-1.631-1.1A1.931,1.931,0,0,1-506.544,161.31Z" transform="translate(-428.034 -180.361)" fill="#fff"/>
    <path id="Path_13623" data-name="Path 13623" d="M-711.518,161.246a1.928,1.928,0,0,1,2.729,1.229,2.237,2.237,0,0,0-1.59,1.133,2.218,2.218,0,0,0-.1,1.971c-.113-.119-.2-.225-.3-.319a3.759,3.759,0,0,0-.336-.278c-.114-.084-.238-.156-.366-.239a2.217,2.217,0,0,0,.82-1.757A2.211,2.211,0,0,0-711.518,161.246Z" transform="translate(-229.226 -180.313)" fill="#fff"/>
  </g>
</svg>
