<svg xmlns="http://www.w3.org/2000/svg" width="9.715" height="7.043" viewBox="0 0 9.715 7.043">
  <path id="Path_13668" data-name="Path 13668" d="M-2424.574-575.1a4.824,4.824,0,0,1-1.422,3.433.3.3,0,0,1-.212.088.3.3,0,0,1-.212-.088.3.3,0,0,1,0-.425,4.228,4.228,0,0,0,1.247-3.008,4.228,4.228,0,0,0-1.247-3.01.3.3,0,0,1,0-.425.3.3,0,0,1,.425,0,4.827,4.827,0,0,1,1.421,3.434Zm-7.67,0a2.8,2.8,0,0,1,.824-1.991v0h0a.3.3,0,0,0,0-.422l0,0a.3.3,0,0,0-.422,0,3.393,3.393,0,0,0-1,2.415,3.386,3.386,0,0,0,1,2.412.3.3,0,0,0,.211.089.3.3,0,0,0,.213-.089h0a.3.3,0,0,0,0-.422A2.789,2.789,0,0,1-2432.244-575.1Zm-.2,3.008a4.218,4.218,0,0,1-1.247-3.008,4.223,4.223,0,0,1,1.247-3.01h0a.3.3,0,0,0,0-.424.3.3,0,0,0-.424,0,4.818,4.818,0,0,0-1.425,3.435,4.817,4.817,0,0,0,1.425,3.433.292.292,0,0,0,.211.088.3.3,0,0,0,.213-.088h0a.3.3,0,0,0,0-.424Zm6.424-3.008a3.39,3.39,0,0,0-1-2.414l0,0a.3.3,0,0,0-.421,0l0,0a.3.3,0,0,0,0,.422,2.8,2.8,0,0,1,.824,1.991,2.791,2.791,0,0,1-.824,1.989l0,0a.3.3,0,0,0,0,.421.294.294,0,0,0,.211.089.3.3,0,0,0,.212-.089,3.379,3.379,0,0,0,1-2.412Zm-1.532,0a1.883,1.883,0,0,1-1.883,1.883,1.883,1.883,0,0,1-1.883-1.883,1.883,1.883,0,0,1,1.883-1.883A1.882,1.882,0,0,1-2427.549-575.1Zm-.949,0-1.4-.809v1.617Z" transform="translate(2434.289 578.621)" fill="#d01f1f" opacity="0.978"/>
</svg>
