<svg xmlns="http://www.w3.org/2000/svg" width="19.723" height="20.598" viewBox="0 0 19.723 20.598">
  <g id="Group_1469" data-name="Group 1469" opacity="0.5">
    <path id="Path_5502" data-name="Path 5502" d="M1432.6-411.1v9.668c0,.474-.137.608-.616.609h-.777a.458.458,0,0,1-.5-.41.505.505,0,0,1,0-.094v-.287a.447.447,0,0,0-.407-.484.423.423,0,0,0-.061,0c-.294-.011-.588-.01-.877,0a.45.45,0,0,0-.479.421.431.431,0,0,0,0,.072,3.349,3.349,0,0,1-.021.419.41.41,0,0,1-.387.36,1.571,1.571,0,0,1-.185,0h-11.228a.454.454,0,0,1-.5-.4.557.557,0,0,1,0-.068c-.006-.107,0-.214,0-.321a.451.451,0,0,0-.414-.485.459.459,0,0,0-.073,0c-.28-.007-.563-.007-.844,0a.457.457,0,0,0-.5.416.416.416,0,0,0,0,.1v.3a.442.442,0,0,1-.422.46h-.038q-.472.011-.945,0a.442.442,0,0,1-.453-.43v-19.71a.442.442,0,0,1,.437-.447h.017q.474-.012.946,0a.44.44,0,0,1,.457.424c0,.012,0,.024,0,.037.006.152,0,.3,0,.455a.452.452,0,0,0,.4.5.446.446,0,0,0,.089,0c.287.005.573.006.861,0a.441.441,0,0,0,.477-.4.434.434,0,0,0,0-.071c.009-.185,0-.372.017-.555a.417.417,0,0,1,.418-.386c.05,0,.1,0,.152,0H1428.3c.441,0,.593.151.594.6,0,.129,0,.259,0,.388a.42.42,0,0,0,.415.425h0q.489.018.979,0a.425.425,0,0,0,.423-.427v-.01c.009-.163,0-.326,0-.489a.451.451,0,0,1,.413-.485.4.4,0,0,1,.073,0q.463-.007.929,0a.44.44,0,0,1,.477.4.405.405,0,0,1,0,.072c0,.225,0,.45,0,.674Zm-9.856-8.43h-3.7c-.4,0-.564.159-.564.559v3.274c0,.4.166.561.566.561h7.362c.41,0,.571-.16.572-.571v-3.256c0-.41-.158-.566-.573-.566Zm-.023,16.826h3.677c.425,0,.579-.154.58-.577v-3.236c0-.42-.16-.577-.584-.577h-7.329c-.433,0-.588.154-.588.588v3.223c0,.427.154.582.577.582Zm-.007-6.214h3.7c.41,0,.57-.162.57-.574v-3.236c0-.425-.157-.583-.578-.583h-7.344c-.422,0-.579.158-.579.582v3.222c0,.437.154.588.588.588Zm7.987,3.8v-.421a.441.441,0,0,0-.385-.491.389.389,0,0,0-.071,0c-.3-.014-.607-.014-.911,0a.44.44,0,0,0-.46.421.369.369,0,0,0,0,.071q-.005.421,0,.842a.445.445,0,0,0,.4.487.465.465,0,0,0,.063,0c.294.012.6.012.894,0a.447.447,0,0,0,.467-.426c0-.021,0-.04,0-.06.005-.141,0-.281,0-.421Zm-14.15-.009v-.421a.441.441,0,0,0-.393-.485.47.47,0,0,0-.072,0c-.294-.012-.6-.012-.894,0a.444.444,0,0,0-.467.421.374.374,0,0,0,0,.064c-.005.281,0,.562,0,.842a.45.45,0,0,0,.4.5.4.4,0,0,0,.072,0c.294.01.589.01.877,0a.448.448,0,0,0,.474-.419.5.5,0,0,0,0-.06c.006-.145,0-.291,0-.437Zm14.15-3.925v-.441a.441.441,0,0,0-.4-.477.432.432,0,0,0-.052,0c-.3-.012-.607-.012-.91,0a.437.437,0,0,0-.461.41.424.424,0,0,0,0,.063c-.006.294-.006.585,0,.875a.435.435,0,0,0,.4.468.422.422,0,0,0,.043,0c.308.013.618.012.927,0a.441.441,0,0,0,.451-.431.215.215,0,0,0,0-.033c.009-.142,0-.288.005-.434Zm0-7.888c0-.147,0-.294,0-.441a.435.435,0,0,0-.408-.461.3.3,0,0,0-.043,0q-.463-.012-.927,0a.427.427,0,0,0-.441.414c0,.012,0,.024,0,.037q-.011.455,0,.909a.442.442,0,0,0,.424.457h.034c.3.007.607.009.91,0a.442.442,0,0,0,.454-.429c0-.012,0-.023,0-.035,0-.148,0-.3,0-.451Zm-14.15,7.89c0-.152.006-.3,0-.455a.433.433,0,0,0-.4-.463.4.4,0,0,0-.051,0c-.308-.012-.617-.013-.926,0a.435.435,0,0,0-.448.422.452.452,0,0,0,0,.046c-.007.294-.007.585,0,.875a.446.446,0,0,0,.416.475.411.411,0,0,0,.06,0c.294.007.586.007.876,0a.442.442,0,0,0,.47-.41.4.4,0,0,0,0-.053c.007-.144,0-.29,0-.437Zm-.9-8.791h0c-.152,0-.3,0-.454,0a.437.437,0,0,0-.465.407c0,.014,0,.027,0,.041-.01.308-.01.618,0,.926a.43.43,0,0,0,.418.441h.019c.314.011.629.01.943,0a.422.422,0,0,0,.436-.407v-.017c.014-.325.015-.651,0-.976a.417.417,0,0,0-.416-.418h-.025c-.149,0-.3,0-.452,0Zm15.051,4.849h0c0-.157.006-.315,0-.471a.409.409,0,0,0-.385-.431h-.019a10.06,10.06,0,0,0-1.01,0,.4.4,0,0,0-.4.4v.028c-.009.308-.008.617,0,.926a.426.426,0,0,0,.4.449h.041c.308.01.618.01.927,0a.435.435,0,0,0,.449-.419c0-.015,0-.031,0-.046,0-.146,0-.292,0-.438Zm-15.063.905c.152,0,.3.005.456,0a.428.428,0,0,0,.453-.4.211.211,0,0,0,0-.038c.012-.308.011-.617,0-.926a.415.415,0,0,0-.387-.441.273.273,0,0,0-.043,0c-.319-.015-.641-.015-.955,0a.419.419,0,0,0-.431.407c0,.011,0,.023,0,.034q-.015.453,0,.909a.44.44,0,0,0,.422.46.389.389,0,0,0,.051,0c.144,0,.291,0,.433,0Z" transform="translate(-1412.882 421.413)" fill="#171619"/>
  </g>
</svg>
