<svg xmlns="http://www.w3.org/2000/svg" xmlns:xlink="http://www.w3.org/1999/xlink" width="18.122" height="18.122" viewBox="0 0 18.122 18.122">
  <defs>
    <clipPath id="clip-path">
      <rect id="Rectangle_6295" data-name="Rectangle 6295" width="18.122" height="18.122" fill="#171619"/>
    </clipPath>
  </defs>
  <g id="Group_8318" data-name="Group 8318" opacity="0.5" clip-path="url(#clip-path)">
    <path id="Path_14434" data-name="Path 14434" d="M18.093,9.641c.012-.192.029-.384.029-.58s-.016-.387-.029-.579l-2.24-.561c-.153-.569-.187-.7-.339-1.268l1.662-1.608A9.168,9.168,0,0,0,16.6,4.04l-2.23.637-.927-.927.637-2.231a9.1,9.1,0,0,0-1-.573l-1.61,1.662c-.569-.151-.7-.187-1.266-.339L9.642.03C9.448.018,9.258,0,9.061,0s-.387.018-.579.03L7.921,2.269l-1.268.339L5.045.947A9.025,9.025,0,0,0,4.04,1.52L4.677,3.75c-.417.415-.512.512-.927.927L1.518,4.04A8.894,8.894,0,0,0,.947,5.045L2.609,6.653,2.269,7.92.03,8.482c-.012.192-.03.384-.03.579s.018.388.03.58l2.24.561.339,1.266L.947,13.078a8.909,8.909,0,0,0,.571,1.005l2.232-.637c.415.415.51.512.927.927L4.04,16.6a9.025,9.025,0,0,0,1.005.573l1.609-1.662c.568.151.7.186,1.268.339l.561,2.239c.192.012.383.03.579.03s.387-.018.58-.03l.561-2.239,1.266-.339,1.61,1.662a9.076,9.076,0,0,0,1-.573l-.637-2.23.927-.927,2.23.637a9.17,9.17,0,0,0,.573-1.005l-1.662-1.61c.151-.567.186-.7.339-1.266ZM9.062,14.749h0v0A5.685,5.685,0,0,1,3.376,9.061v0a5.684,5.684,0,1,1,5.687,5.689" fill="#171619"/>
    <path id="Path_14435" data-name="Path 14435" d="M53.018,46.206l-3.393-1.959a.461.461,0,0,0-.691.4v3.917a.461.461,0,0,0,.691.4L53.018,47a.461.461,0,0,0,0-.8" transform="translate(-41.579 -37.544)" fill="#171619"/>
  </g>
</svg>
