<svg xmlns="http://www.w3.org/2000/svg" width="26.703" height="26.706" viewBox="0 0 26.703 26.706">
  <path id="Path_13875" data-name="Path 13875" d="M-2151.6,829.577c.018-.283.042-.566.042-.855s-.024-.57-.042-.853l-3.3-.827c-.225-.838-.276-1.03-.5-1.868l2.449-2.369a13.559,13.559,0,0,0-.845-1.481l-3.286.939-1.366-1.366.939-3.287a13.407,13.407,0,0,0-1.48-.844l-2.372,2.449c-.838-.223-1.028-.276-1.866-.5l-.827-3.3c-.285-.018-.566-.044-.855-.044s-.57.027-.853.044l-.827,3.3-1.868.5-2.37-2.449a13.281,13.281,0,0,0-1.481.844l.939,3.287c-.615.612-.754.754-1.366,1.366l-3.289-.939a13.152,13.152,0,0,0-.842,1.481l2.449,2.369-.5,1.868-3.3.827c-.018.283-.044.566-.044.853s.026.572.044.855l3.3.827.5,1.865-2.449,2.372a13.152,13.152,0,0,0,.842,1.481l3.289-.939c.612.612.751.754,1.366,1.366l-.939,3.286a13.263,13.263,0,0,0,1.481.844l2.37-2.449c.837.223,1.03.274,1.868.5l.827,3.3c.283.018.565.044.853.044s.57-.026.855-.044l.827-3.3c.838-.225,1.028-.276,1.866-.5l2.372,2.449a13.389,13.389,0,0,0,1.48-.844l-.939-3.286,1.366-1.366,3.286.939a13.559,13.559,0,0,0,.845-1.481l-2.449-2.372c.223-.835.274-1.028.5-1.865Zm-13.31,5.22a6.074,6.074,0,0,1-6.074-6.076,6.074,6.074,0,0,1,6.074-6.074,6.074,6.074,0,0,1,6.073,6.074A6.075,6.075,0,0,1-2164.911,834.8Z" transform="translate(2178.263 -815.37)" fill="#fff" opacity="0.5"/>
</svg>
