<svg id="Component_25_1" data-name="Component 25 – 1" xmlns="http://www.w3.org/2000/svg" xmlns:xlink="http://www.w3.org/1999/xlink" width="34" height="34" viewBox="0 0 34 34">
  <defs>
    <linearGradient id="linear-gradient" x1="-0.088" y1="-0.465" x2="0.5" y2="1" gradientUnits="objectBoundingBox">
      <stop offset="0" stop-color="#60f5f9"/>
      <stop offset="1" stop-color="#64f9a0"/>
    </linearGradient>
  </defs>
  <rect id="Rectangle_6281" data-name="Rectangle 6281" width="34" height="34" rx="6" fill="url(#linear-gradient)"/>
  <path id="Path_14420" data-name="Path 14420" d="M-2412.668-570.784a10.739,10.739,0,0,1-3.165,7.641.666.666,0,0,1-.473.195.665.665,0,0,1-.473-.195.672.672,0,0,1,0-.946,9.4,9.4,0,0,0,2.774-6.695,9.4,9.4,0,0,0-2.774-6.7.671.671,0,0,1,0-.945.673.673,0,0,1,.946,0,10.743,10.743,0,0,1,3.162,7.643Zm-17.069,0a6.23,6.23,0,0,1,1.833-4.431v0h0a.666.666,0,0,0,0-.939l-.005,0a.663.663,0,0,0-.938,0,7.552,7.552,0,0,0-2.225,5.374,7.534,7.534,0,0,0,2.225,5.368.661.661,0,0,0,.47.2.671.671,0,0,0,.473-.2l0,0a.666.666,0,0,0,0-.94A6.2,6.2,0,0,1-2429.737-570.784Zm-.438,6.694a9.385,9.385,0,0,1-2.775-6.694,9.4,9.4,0,0,1,2.775-6.7l0,0a.667.667,0,0,0,0-.943.67.67,0,0,0-.943,0,10.724,10.724,0,0,0-3.171,7.643,10.719,10.719,0,0,0,3.171,7.641.649.649,0,0,0,.47.195.666.666,0,0,0,.473-.195v0a.667.667,0,0,0,0-.944Zm14.3-6.695a7.54,7.54,0,0,0-2.227-5.373l0,0a.664.664,0,0,0-.938,0l0,0a.664.664,0,0,0,0,.939,6.235,6.235,0,0,1,1.835,4.431,6.213,6.213,0,0,1-1.835,4.425l0,0a.663.663,0,0,0,0,.938.654.654,0,0,0,.469.2.666.666,0,0,0,.473-.2,7.518,7.518,0,0,0,2.227-5.368Zm-3.41,0a4.19,4.19,0,0,1-4.19,4.19,4.191,4.191,0,0,1-4.19-4.19,4.19,4.19,0,0,1,4.19-4.19A4.189,4.189,0,0,1-2419.289-570.785Zm-2.112,0-3.117-1.8v3.6Z" transform="translate(2440.656 588.121)" fill="#171619"/>
</svg>
